<?xml version="1.0" encoding="UTF-8"?>
<!DOCTYPE svg PUBLIC "-//W3C//DTD SVG 1.1//EN" "http://www.w3.org/Graphics/SVG/1.1/DTD/svg11.dtd">
<!-- Creator: CorelDRAW 2019 (64 Bit) -->
<svg xmlns="http://www.w3.org/2000/svg" xml:space="preserve" width="500px" height="500px" version="1.1" style="shape-rendering:geometricPrecision; text-rendering:geometricPrecision; image-rendering:optimizeQuality; fill-rule:evenodd; clip-rule:evenodd"
viewBox="0 0 500 500"
 xmlns:xlink="http://www.w3.org/1999/xlink">
 <defs>
  <style type="text/css">
   <![CDATA[
    .fil2 {fill:#E8A0A1;fill-rule:nonzero}
    .fil4 {fill:#AFCF9B;fill-rule:nonzero}
    .fil6 {fill:#919D8B;fill-rule:nonzero}
    .fil7 {fill:#6B796C;fill-rule:nonzero}
    .fil1 {fill:#5AB6DA;fill-rule:nonzero}
    .fil0 {fill:#304B40;fill-rule:nonzero}
    .fil3 {fill:#2065A7;fill-rule:nonzero}
    .fil8 {fill:url(#id0)}
    .fil9 {fill:url(#id1)}
    .fil5 {fill:url(#id2)}
   ]]>
  </style>
  <linearGradient id="id0" gradientUnits="userSpaceOnUse" x1="291.73" y1="121.78" x2="322.2" y2="121.78">
   <stop offset="0" style="stop-opacity:1; stop-color:#A79366"/>
   <stop offset="0.509804" style="stop-opacity:1; stop-color:#F2EABE"/>
   <stop offset="1" style="stop-opacity:1; stop-color:#A88A4F"/>
  </linearGradient>
  <linearGradient id="id1" gradientUnits="userSpaceOnUse" xlink:href="#id0" x1="260.08" y1="138.65" x2="310.49" y2="138.65">
  </linearGradient>
  <linearGradient id="id2" gradientUnits="userSpaceOnUse" xlink:href="#id0" x1="292.68" y1="119.81" x2="322.74" y2="119.81">
  </linearGradient>
 </defs>
 <g id="Camada_x0020_1">
  <metadata id="CorelCorpID_0Corel-Layer"/>
  <g id="_2269416072576">
   <path class="fil0" d="M253.2 225.16c-3.43,-2.14 -7.67,-2.63 -10.01,1.34 -1.89,3.22 -0.67,7.63 2.61,9.42 1.61,0.87 3.1,0.8 4.57,0.3 -1.39,0.46 -2.79,0.51 -4.38,-0.35 -3.28,-1.78 -4.68,-6.12 -2.79,-9.34 2.33,-3.97 6.58,-3.48 10.01,-1.34 1.47,0.91 3.33,0.07 3.71,-1.5l0 -0.06c-0.37,1.59 -2.23,2.46 -3.72,1.53z"/>
   <path class="fil0" d="M46 229.06l-2.5 0 0 -0.32 7.5 0 20.25 50.25c-1.37,-5.72 -1.78,-10.24 -1.37,-13.63 0.4,-3.39 1.37,-6.13 2.9,-8.31 1.53,-2.1 3.23,-4.03 5.25,-5.81 1.69,-1.53 3.3,-3.22 4.83,-5.08 3.88,-5.16 5.97,-10.97 6.22,-17.42l7.74 0 0 0.32 -2.58 0c-0.4,0 -0.81,0.08 -1.13,0.32 -0.32,0.24 -0.48,0.56 -0.48,1.05l0 51.87c0,0.49 0.16,0.81 0.48,1.05 0.32,0.24 0.73,0.32 1.13,0.32l2.58 0 0 0.33 -12.02 0 0 -0.33 2.59 0c0.4,0 0.8,-0.08 1.12,-0.32 0.32,-0.24 0.49,-0.56 0.49,-1.05l0 -48.56c-0.89,5.08 -2.99,9.68 -6.37,13.63 -1.22,1.29 -2.42,2.58 -3.72,3.79 -1.21,1.05 -2.34,2.18 -3.38,3.39 -3.23,3.63 -4.93,7.5 -5.17,11.54 -0.24,4.11 0.32,8.31 1.53,12.75l-1.85 5.16 -0.57 0 -21.21 -52.52 0 50.82c0.07,0.49 0.24,0.81 0.56,1.05 0.32,0.24 0.73,0.32 1.13,0.32l2.58 0 0 0.33 -9.03 0 0 -0.33 2.5 0c0.4,0 0.81,-0.08 1.21,-0.32 0.32,-0.24 0.48,-0.56 0.48,-1.05l0 -51.71c0,-1.13 -0.56,-1.61 -1.69,-1.53z"/>
   <path class="fil0" d="M47.88 229.23l21.87 54.12 1.55 -4.33 -0.51 0.16 -20.12 -49.95 -2.79 0zm-0.11 54.27l0.48 0c-0.09,-0.1 -0.17,-0.22 -0.24,-0.35 -0.06,0.13 -0.14,0.25 -0.24,0.35zm41.31 0l3.47 0c-0.28,-0.31 -0.42,-0.71 -0.42,-1.19l0 -51.88c0,-0.49 0.14,-0.89 0.42,-1.2l-3 0c-0.08,1.52 -0.26,3 -0.54,4.46l0.48 0.04 0 48.58c0,0.48 -0.13,0.88 -0.41,1.19zm8.24 0.99l-13.01 0 0 -1.31 3.07 0c0.36,0 0.64,-0.07 0.84,-0.22 0.17,-0.13 0.28,-0.29 0.28,-0.65l0 -44.47c-1.16,3.64 -3,6.94 -5.5,9.85 -1.21,1.29 -2.45,2.61 -3.75,3.83 -1.2,1.05 -2.32,2.17 -3.35,3.36 -3.11,3.5 -4.8,7.27 -5.04,11.24 -0.23,3.89 0.26,8.01 1.51,12.59l0.05 0.15 -2.03 5.63 -1.25 0 -0.12 -0.31 -20.27 -50.15 0 48.23c0.07,0.4 0.2,0.57 0.37,0.7 0.2,0.15 0.47,0.22 0.83,0.22l3.08 0 0 1.31 -10.03 0 0 -1.31 3 0c0.35,0 0.65,-0.07 0.93,-0.24 0.16,-0.13 0.26,-0.28 0.26,-0.63l0 -51.72c0,-0.41 -0.08,-0.69 -0.24,-0.84 -0.18,-0.16 -0.48,-0.23 -0.92,-0.2l-0.03 0 -3 0 0 -1.31 8.33 0 0.13 0.31 18.27 45.34c-0.51,-3.32 -0.63,-6.2 -0.34,-8.59 0.41,-3.47 1.39,-6.26 2.99,-8.53 1.67,-2.29 3.41,-4.22 5.32,-5.9 1.67,-1.51 3.28,-3.2 4.78,-5.02 3.81,-5.08 5.87,-10.85 6.1,-17.13l0.02 -0.48 8.72 0 0 1.31 -3.08 0c-0.35,0 -0.63,0.08 -0.83,0.23 -0.17,0.12 -0.29,0.28 -0.29,0.65l0 51.88c0,0.36 0.12,0.52 0.29,0.65 0.2,0.15 0.48,0.22 0.83,0.22l3.08 0 0 1.31z"/>
   <path class="fil0" d="M105.7 232.2c-0.56,-0.56 -0.81,-1.21 -0.81,-1.93 0,-0.73 0.25,-1.37 0.81,-1.94 0.56,-0.56 1.21,-0.81 1.94,-0.81 0.72,0 1.37,0.25 1.93,0.81 0.57,0.57 0.81,1.21 0.81,1.94 0,0.72 -0.24,1.37 -0.81,1.93 -0.56,0.57 -1.21,0.81 -1.93,0.81 -0.73,0 -1.38,-0.24 -1.94,-0.81zm-0.24 12.59c-0.41,-0.32 -0.81,-0.49 -1.21,-0.49l-2.58 0 0 -0.32c2.58,-0.08 5.16,-0.4 7.66,-1.13l0.24 0.16 0 38.81c0,0.56 0.16,1.05 0.49,1.37 0.32,0.32 0.72,0.48 1.13,0.48l2.26 0 0 0.33 -11.38 0 0 -0.33 2.18 0c0.4,0 0.8,-0.16 1.21,-0.48 0.32,-0.24 0.48,-0.72 0.48,-1.29l0 -35.74c0,-0.56 -0.16,-1.05 -0.48,-1.37z"/>
   <path class="fil0" d="M106.05 231.85c0.45,0.45 0.95,0.67 1.59,0.67 0.63,0 1.13,-0.22 1.58,-0.67 0.45,-0.45 0.66,-0.95 0.66,-1.58 0,-0.63 -0.21,-1.14 -0.66,-1.59 -0.45,-0.45 -0.95,-0.66 -1.58,-0.66 -0.64,0 -1.14,0.21 -1.59,0.66 -0.45,0.45 -0.66,0.96 -0.66,1.59 0,0.63 0.21,1.13 0.66,1.58zm1.59 1.66c-0.89,0 -1.66,-0.32 -2.29,-0.96 -0.63,-0.63 -0.95,-1.4 -0.95,-2.28 0,-0.89 0.32,-1.66 0.95,-2.29 0.63,-0.63 1.4,-0.95 2.29,-0.95 0.88,0 1.65,0.32 2.28,0.95 0.63,0.63 0.96,1.4 0.96,2.29 0,0.88 -0.33,1.65 -0.96,2.28 -0.63,0.64 -1.4,0.96 -2.28,0.96zm-1.78 49.99l3.81 0c-0.39,-0.41 -0.59,-0.99 -0.59,-1.68l0 -38.38c-1.16,0.32 -2.37,0.56 -3.63,0.73 0.1,0.07 0.21,0.15 0.32,0.23l0.04 0.04c0.41,0.41 0.63,1 0.63,1.72l0 35.74c0,0.7 -0.21,1.26 -0.58,1.6zm8.08 1l-12.36 0 0 -1.32 2.67 0c0.28,0 0.59,-0.13 0.9,-0.38 0.19,-0.14 0.3,-0.48 0.3,-0.9l0 -35.74c0,-0.43 -0.12,-0.78 -0.33,-1 -0.3,-0.24 -0.6,-0.36 -0.87,-0.36l-3.08 0 0 -1.3 0.48 -0.01c2.8,-0.09 5.27,-0.45 7.54,-1.11l0.22 -0.07 0.66 0.44 0 39.07c0,0.45 0.11,0.8 0.34,1.02 0.21,0.22 0.49,0.34 0.77,0.34l2.76 0 0 1.32z"/>
   <path class="fil0" d="M122.88 244.79c-0.32,-0.32 -0.72,-0.48 -1.13,-0.48l-2.66 0 0 -0.33c2.66,-0.08 5.16,-0.4 7.67,-1.13l0.24 0.16 0 10.9c0.88,-2.5 2.5,-5.01 4.68,-7.42 2.17,-2.35 4.76,-3.64 7.58,-3.8 2.9,-0.08 5.41,0.89 7.59,2.91 -1.38,1.37 -2.1,2.98 -2.18,4.83l-0.33 0c-0.08,-1.77 -0.64,-3.22 -1.53,-4.43 -0.88,-1.13 -2.26,-1.77 -4.11,-1.86 -2.5,-0.08 -4.92,1.21 -7.42,3.88 -0.81,0.88 -1.62,1.93 -2.35,3.06 -0.88,1.45 -1.53,2.91 -1.93,4.36l0 26.38c0,0.56 0.16,1.05 0.48,1.37 0.33,0.32 0.73,0.49 1.21,0.49l2.18 0 0 0.32 -11.37 0 0 -0.32 2.25 0c0.41,0 0.81,-0.17 1.13,-0.49 0.32,-0.24 0.49,-0.73 0.49,-1.29l0 -35.74c0,-0.56 -0.17,-1.05 -0.49,-1.37z"/>
   <path class="fil0" d="M138.48 243.64c0.07,0 0.15,0 0.23,0.01 1.99,0.09 3.49,0.77 4.49,2.04 0.61,0.83 1.05,1.74 1.32,2.72 0.33,-1.01 0.86,-1.94 1.61,-2.78 -2,-1.72 -4.26,-2.52 -6.86,-2.44 -1.72,0.1 -3.34,0.63 -4.84,1.6 1.35,-0.77 2.69,-1.15 4.05,-1.15zm-15.2 39.86l3.81 0c-0.38,-0.41 -0.59,-0.99 -0.59,-1.68l0 -38.38c-1.16,0.32 -2.34,0.56 -3.59,0.73 0.12,0.08 0.22,0.17 0.32,0.27l0 0c0.42,0.41 0.63,1.01 0.63,1.72l0 35.74c0,0.7 -0.2,1.26 -0.58,1.6zm8.09 0.99l-12.37 0 0 -1.31 2.75 0c0.29,0 0.57,-0.12 0.78,-0.34l0.06 -0.05c0.17,-0.13 0.28,-0.47 0.28,-0.89l0 -35.74c0,-0.45 -0.12,-0.8 -0.34,-1.02 -0.22,-0.22 -0.49,-0.34 -0.78,-0.34l-3.15 0 0 -1.3 0.47 -0.01c2.84,-0.09 5.23,-0.44 7.55,-1.11l0.22 -0.07 0.66 0.44 0 8.78c0.92,-1.78 2.19,-3.59 3.81,-5.38 2.29,-2.46 4.95,-3.78 7.92,-3.95 3.07,-0.09 5.65,0.9 7.95,3.03l0.38 0.35 -0.36 0.36c-1.3,1.3 -1.96,2.77 -2.04,4.52l-0.02 0.47 -1.27 0 -0.02 -0.47c-0.08,-1.58 -0.54,-2.95 -1.44,-4.17 -0.8,-1.02 -2.06,-1.58 -3.74,-1.65 -2.32,-0.07 -4.62,1.14 -7.04,3.72 -0.8,0.88 -1.59,1.91 -2.28,2.99 -0.84,1.38 -1.47,2.78 -1.85,4.16l0 26.31c0,0.45 0.11,0.8 0.33,1.02 0.23,0.23 0.51,0.34 0.86,0.34l2.68 0 0 1.31z"/>
   <path class="fil0" d="M156.29 222.93c-0.41,-0.32 -0.81,-0.49 -1.21,-0.49l-2.59 0 0 -0.32c2.59,-0.08 5.17,-0.4 7.67,-1.05l0.24 0.08 0 60.67c0,0.56 0.16,1.05 0.48,1.37 0.33,0.32 0.73,0.49 1.13,0.49l2.26 0 0 0.32 -11.37 0 0 -0.32 2.26 0c0.4,0 0.8,-0.17 1.13,-0.49 0.32,-0.24 0.48,-0.73 0.48,-1.29l0 -57.6c0,-0.57 -0.16,-0.97 -0.48,-1.37z"/>
   <path class="fil0" d="M156.69 283.5l3.8 0c-0.38,-0.41 -0.59,-0.99 -0.59,-1.68l0 -60.18c-1.16,0.29 -2.37,0.51 -3.62,0.67 0.11,0.07 0.21,0.15 0.31,0.23l0.08 0.07c0.41,0.52 0.59,1.04 0.59,1.69l0 57.6c0,0.7 -0.2,1.26 -0.57,1.6zm8.08 0.99l-12.37 0 0 -1.31 2.76 0c0.28,0 0.55,-0.12 0.78,-0.34l0.05 -0.05c0.17,-0.13 0.28,-0.47 0.28,-0.89l0 -57.6c0,-0.41 -0.09,-0.7 -0.34,-1.02 -0.3,-0.23 -0.58,-0.34 -0.86,-0.34l-3.07 0 0 -1.3 0.48 -0.02c2.68,-0.08 5.22,-0.43 7.55,-1.03l0.14 -0.04 0.72 0.24 0 61.03c0,0.45 0.12,0.8 0.35,1.02 0.21,0.22 0.49,0.34 0.77,0.34l2.76 0 0 1.31z"/>
   <path class="fil0" d="M197.35 260.68l-0.89 -6.05c-0.16,1.37 -0.97,2.5 -2.42,3.39 -1.29,0.81 -2.82,1.53 -4.68,2.1 -1.85,0.56 -3.63,1.13 -5.4,1.53 -0.89,0.24 -1.78,0.49 -2.59,0.73 -3.38,1.04 -6.05,2.98 -7.98,5.89 -1.94,2.98 -2.02,6.13 -0.25,9.52 1.62,2.5 3.8,3.87 6.62,4.19 2.74,0.4 5.49,-0.16 8.23,-1.69 2.66,-1.45 4.76,-3.71 6.13,-6.7 0.97,-2.18 1.77,-4.6 2.34,-7.1 0.41,-1.85 0.65,-3.79 0.89,-5.81zm10.73 22.19l0.4 0.4c-0.08,0.25 -0.24,0.4 -0.48,0.49 -0.08,0.08 -0.24,0.16 -0.41,0.24 -0.48,0.24 -0.96,0.32 -1.53,0.32 -3.55,-0.16 -5.56,-2.02 -6.05,-5.65l-2.42 -16.29c-0.72,7.74 -2.74,13.31 -6.13,16.78 -3.47,3.47 -7.18,5.16 -11.13,5.16 -4.76,-0.16 -8.23,-1.69 -10.33,-4.68 -2.02,-2.9 -2.18,-6.13 -0.56,-9.6 1.61,-3.47 5.56,-6.21 11.78,-8.23 1.28,-0.4 2.57,-0.72 3.87,-1.05 3.14,-0.72 5.73,-1.61 7.9,-2.66 2.1,-1.05 3.15,-2.66 3.15,-4.92 -0.25,-3.23 -1.21,-5.73 -2.99,-7.42 -1.85,-1.7 -4.11,-2.5 -6.86,-2.5 -6.21,0.24 -10,3.38 -11.21,9.44l-0.24 0.08c-0.16,-1.86 -0.89,-3.47 -2.18,-4.84 2.1,-1.86 4.36,-3.23 6.78,-4.04 2.34,-0.8 4.68,-1.21 6.85,-1.29 4.61,0 7.99,1.13 10.09,3.31 2.02,2.26 3.31,5.57 3.87,9.84l3.55 24.21c0.08,0.96 0.41,1.77 0.81,2.5 0.4,0.72 1.13,1.13 2.18,1.05 0.56,0 0.97,-0.25 1.29,-0.65z"/>
   <path class="fil0" d="M173.37 247.98c0.75,0.9 1.3,1.91 1.63,3 1,-3.29 2.87,-5.61 5.6,-6.93 -0.34,0.1 -0.67,0.21 -1,0.32 -2.16,0.72 -4.25,1.93 -6.23,3.61zm22.88 8.65c-0.45,0.68 -1.1,1.29 -1.95,1.81 -1.43,0.9 -3.04,1.62 -4.79,2.15l-0.75 0.23c-1.61,0.49 -3.14,0.96 -4.69,1.32l-0.07 0.01c-0.85,0.24 -1.7,0.47 -2.48,0.7 -3.33,1.03 -5.85,2.89 -7.72,5.69 -1.84,2.83 -1.91,5.78 -0.21,9.02 1.5,2.32 3.55,3.62 6.23,3.93 2.63,0.39 5.3,-0.16 7.93,-1.64 2.61,-1.42 4.6,-3.6 5.92,-6.46 0.96,-2.17 1.76,-4.6 2.31,-7.01 0.38,-1.76 0.62,-3.62 0.87,-5.69l-0.6 -4.06zm1.6 4.08l2.65 17.89c0.41,3.08 1.97,4.77 4.77,5.15 -0.46,-0.22 -0.83,-0.57 -1.09,-1.04 -0.52,-0.93 -0.8,-1.79 -0.87,-2.7l-3.55 -24.17c-0.55,-4.2 -1.81,-7.43 -3.75,-9.59 -1.32,-1.37 -3.2,-2.3 -5.6,-2.78 1.14,0.44 2.15,1.08 3.08,1.92 1.46,1.39 2.42,3.32 2.88,5.75l0.04 -0.29 1.44 9.83 0 0.03zm-21.27 3.5c-3.36,1.68 -5.61,3.7 -6.7,6.04 -1.54,3.32 -1.36,6.39 0.53,9.11 1.97,2.81 5.31,4.31 9.93,4.47 3.81,0 7.44,-1.69 10.77,-5.02 0.46,-0.48 0.91,-1 1.32,-1.56 -1.17,1.42 -2.57,2.59 -4.2,3.47 -2.83,1.58 -5.7,2.17 -8.54,1.75 -2.98,-0.34 -5.26,-1.78 -6.96,-4.41 -1.87,-3.57 -1.78,-6.94 0.24,-10.06 1,-1.5 2.21,-2.77 3.61,-3.79zm29.48 20.61c-3.83,-0.18 -6.03,-2.22 -6.54,-6.08l-1.89 -12.72c-0.98,6.06 -2.89,10.49 -5.81,13.48 -3.53,3.53 -7.4,5.32 -11.5,5.32 -4.96,-0.17 -8.57,-1.82 -10.72,-4.89 -2.11,-3.04 -2.32,-6.44 -0.61,-10.1 1.66,-3.57 5.72,-6.43 12.07,-8.49 1.32,-0.41 2.64,-0.74 3.91,-1.06 3.04,-0.7 5.59,-1.56 7.81,-2.63 1.92,-0.96 2.86,-2.42 2.86,-4.47 -0.23,-3.11 -1.19,-5.49 -2.83,-7.07 -1.74,-1.58 -3.87,-2.36 -6.51,-2.36 -5.96,0.24 -9.58,3.28 -10.73,9.04l-0.06 0.28 -1.11 0.38 -0.05 -0.63c-0.15,-1.73 -0.84,-3.26 -2.05,-4.54l-0.35 -0.38 0.38 -0.34c2.19,-1.93 4.53,-3.32 6.95,-4.13 2.28,-0.78 4.63,-1.23 7,-1.32l0 0c4.74,0 8.25,1.17 10.46,3.46 2.08,2.34 3.43,5.74 4.01,10.13l3.55 24.19c0.06,0.8 0.3,1.53 0.75,2.33 0.32,0.59 0.9,0.86 1.7,0.8 0.41,0 0.68,-0.14 0.94,-0.46l0.35 -0.43 1.01 1.01 -0.1 0.29c-0.12,0.36 -0.35,0.62 -0.7,0.76 -0.12,0.09 -0.27,0.17 -0.42,0.25 -0.53,0.26 -1.07,0.38 -1.77,0.38z"/>
   <path class="fil0" d="M244.14 282.3c0,0.57 0.17,0.89 0.41,0.97 0.24,0.08 0.56,0.16 0.96,0.16l11.62 0c6.7,-0.08 11.54,-2.09 14.36,-5.88 2.83,-3.8 4.12,-7.91 3.71,-12.43 -0.24,-3.79 -1.45,-6.94 -3.63,-9.36 -2.18,-2.34 -5.24,-3.23 -9.19,-2.5 -1.22,0.24 -2.26,0.56 -3.23,0.97 -1.61,0.72 -3.47,1.13 -5.49,1.21 -0.88,0 -1.61,-0.17 -2.18,-0.57 -0.56,-0.32 -0.88,-0.97 -0.88,-1.85 0.16,-1.05 0.72,-1.78 1.77,-2.26 1.05,-0.41 2.26,-0.81 3.79,-1.13 2.34,-0.4 4.6,-1.21 6.78,-2.58 2.1,-1.29 3.31,-3.88 3.63,-7.75 0,-2.98 -0.88,-5.4 -2.74,-7.17 -1.86,-1.78 -4.28,-2.75 -7.26,-2.83l-11.22 0c-0.8,0 -1.21,0.4 -1.21,1.21l0 51.79zm-4.11 0.97c0.32,-0.16 0.48,-0.56 0.48,-1.04l0 -51.8c0,-0.48 -0.16,-0.81 -0.48,-1.05 -0.32,-0.24 -0.73,-0.32 -1.13,-0.32l-2.58 0 0 -0.33 19.6 0c2.58,0 5,0.33 7.18,0.89 2.18,0.65 3.87,1.78 5.16,3.39 1.3,1.61 1.94,3.87 1.86,6.86 -0.4,3.3 -1.37,5.65 -2.9,7.02 -1.62,1.45 -3.47,2.42 -5.65,2.9 -1.61,0.32 -3.15,0.56 -4.68,0.73 -1.37,0.08 -2.5,0.24 -3.55,0.48 -1.37,0.33 -2.1,1.13 -2.18,2.26 0.08,0.64 0.32,1.05 0.81,1.37 0.4,0.24 0.97,0.4 1.61,0.4 2.02,-0.08 3.88,-0.56 5.49,-1.53 1.05,-0.64 2.26,-1.12 3.63,-1.53 1.29,-0.4 2.9,-0.48 4.76,-0.32 3.47,0.4 6.13,1.77 8.07,4.11 1.93,2.26 2.98,5.24 3.22,8.79 0.16,3.31 -0.4,6.46 -1.77,9.45 -1.37,2.9 -3.63,5.32 -6.78,7.18 -3.14,1.93 -7.26,2.82 -12.34,2.82l-21.54 0 0 -0.4 2.58 0c0.4,0 0.81,-0.09 1.13,-0.33z"/>
   <path class="fil0" d="M260.89 229.65c1.23,0.49 2.32,1.2 3.28,2.11 1.92,1.85 2.9,4.38 2.9,7.55 -0.34,4.05 -1.64,6.79 -3.87,8.16 -2,1.26 -4.12,2.1 -6.47,2.56 0.04,0 0.09,0 0.13,-0.01 1.45,-0.15 2.97,-0.39 4.61,-0.72 2.07,-0.45 3.84,-1.37 5.41,-2.78 1.44,-1.29 2.36,-3.54 2.75,-6.71 0.07,-2.75 -0.52,-4.95 -1.75,-6.49 -1.25,-1.56 -2.86,-2.61 -4.92,-3.22 -0.67,-0.18 -1.36,-0.33 -2.07,-0.45zm4.06 22.87c2.84,0 5.19,0.97 6.99,2.9 2.24,2.5 3.51,5.75 3.76,9.67 0.4,4.52 -0.88,8.81 -3.81,12.75 -1.74,2.34 -4.19,4.01 -7.32,5.01 2.06,-0.45 3.83,-1.15 5.37,-2.1 3.04,-1.79 5.25,-4.13 6.59,-6.97 1.3,-2.84 1.89,-5.94 1.73,-9.2 -0.24,-3.51 -1.29,-6.37 -3.11,-8.5 -1.88,-2.27 -4.41,-3.55 -7.75,-3.94 -1.85,-0.16 -3.39,-0.06 -4.55,0.3 -0.65,0.19 -1.24,0.4 -1.77,0.61 0.38,-0.1 0.78,-0.2 1.2,-0.27 0.93,-0.18 1.82,-0.26 2.67,-0.26zm-8.4 -22.72l-11.2 0c-0.53,0 -0.71,0.18 -0.71,0.71l0 51.79c0,0.41 0.09,0.52 0.1,0.52 0.24,0.08 0.5,0.12 0.78,0.12l11.61 0c6.51,-0.08 11.21,-1.99 13.97,-5.69 2.82,-3.79 4,-7.74 3.61,-12.09 -0.24,-3.7 -1.41,-6.74 -3.51,-9.07 -2.08,-2.23 -5.02,-3.02 -8.73,-2.34 -1.13,0.23 -2.16,0.53 -3.13,0.93 -1.65,0.75 -3.56,1.17 -5.66,1.25l0 0c-1.05,0 -1.85,-0.2 -2.46,-0.64 -0.72,-0.42 -1.12,-1.23 -1.12,-2.27l0.01 -0.08c0.19,-1.22 0.86,-2.08 2.06,-2.63 1.37,-0.53 2.56,-0.88 3.89,-1.16 2.44,-0.42 4.59,-1.25 6.62,-2.52 1.95,-1.2 3.09,-3.68 3.4,-7.37 -0.01,-2.84 -0.88,-5.13 -2.6,-6.78 -1.78,-1.7 -4.11,-2.61 -6.93,-2.68zm-16 53.7l3.47 0c-0.2,-0.2 -0.37,-0.57 -0.37,-1.2l0 -51.79c0,-0.56 0.16,-0.99 0.46,-1.28l-3.51 0c0.27,0.31 0.41,0.71 0.41,1.2l0 51.79c0,0.55 -0.16,0.99 -0.46,1.28zm17.31 0.99l-22.04 0 0 -1.39 3.08 0c0.35,0 0.63,-0.07 0.83,-0.22l0.08 -0.05c0.12,-0.07 0.21,-0.31 0.21,-0.61l0 -51.79c0,-0.36 -0.12,-0.53 -0.29,-0.65 -0.2,-0.15 -0.48,-0.22 -0.83,-0.22l-3.08 0 0 -1.32 20.1 0c2.54,0 5,0.3 7.3,0.9 2.29,0.68 4.05,1.84 5.43,3.56 1.39,1.73 2.05,4.15 1.97,7.18 -0.42,3.46 -1.45,5.93 -3.07,7.38 -1.7,1.53 -3.62,2.52 -5.87,3.02 -1.69,0.33 -3.23,0.57 -4.74,0.73 -1.32,0.08 -2.43,0.23 -3.49,0.47 -1.1,0.26 -1.7,0.86 -1.79,1.77 0.07,0.47 0.23,0.73 0.58,0.97 0.34,0.2 0.82,0.32 1.34,0.32 1.98,-0.08 3.75,-0.57 5.23,-1.46 1.01,-0.63 2.24,-1.14 3.75,-1.59 1.29,-0.4 2.91,-0.51 4.94,-0.34 3.57,0.42 6.4,1.86 8.41,4.3 1.96,2.28 3.09,5.34 3.34,9.07 0.17,3.44 -0.45,6.69 -1.82,9.68 -1.43,3.03 -3.78,5.51 -6.98,7.4 -3.15,1.95 -7.28,2.89 -12.59,2.89z"/>
   <path class="fil0" d="M294.65 246c-2.42,1.85 -4.2,4.36 -5.41,7.42 -1.21,3.15 -1.85,6.45 -1.85,10.09 0,3.63 0.64,7.01 1.85,10 1.21,3.07 2.99,5.48 5.41,7.34 2.34,1.86 5.32,2.82 8.95,2.82 3.64,0 6.7,-0.96 9.12,-2.82 2.34,-1.86 4.12,-4.27 5.32,-7.34 1.21,-2.99 1.78,-6.37 1.78,-10 0,-3.64 -0.57,-6.94 -1.78,-10.09 -1.2,-3.06 -2.98,-5.57 -5.4,-7.42 -2.42,-1.85 -5.4,-2.83 -9.04,-2.83 -3.63,0 -6.61,0.98 -8.95,2.83zm-5.49 32.51c-3.63,-3.87 -5.4,-8.87 -5.4,-15.09 0,-6.13 1.77,-11.13 5.4,-15 3.63,-3.88 8.39,-5.81 14.44,-5.81 6.05,0 10.82,1.93 14.44,5.81 3.63,3.87 5.41,8.87 5.41,15 0,6.22 -1.78,11.22 -5.41,15.09 -3.62,3.87 -8.39,5.81 -14.44,5.81 -6.05,0 -10.81,-1.94 -14.44,-5.81z"/>
   <path class="fil0" d="M310.6 244.17c0.83,0.4 1.61,0.88 2.34,1.44 2.43,1.86 4.3,4.42 5.57,7.63 1.22,3.17 1.8,6.52 1.8,10.26 0,3.81 -0.6,7.23 -1.8,10.2 -1.24,3.13 -3.03,5.6 -5.48,7.54 -0.86,0.66 -1.79,1.2 -2.78,1.64 2.87,-0.9 5.33,-2.47 7.43,-4.71 3.55,-3.78 5.27,-8.61 5.27,-14.74 0,-6 -1.77,-10.94 -5.27,-14.67 -2.01,-2.15 -4.35,-3.67 -7.08,-4.59zm-13.92 -0.03c-2.75,0.92 -5.13,2.45 -7.15,4.62 -3.5,3.73 -5.28,8.66 -5.28,14.67 0,6.14 1.73,10.96 5.28,14.74 2.17,2.32 4.72,3.91 7.72,4.8 -1.05,-0.45 -2.02,-1.03 -2.91,-1.73 -2.49,-1.91 -4.31,-4.38 -5.56,-7.55 -1.25,-3.09 -1.89,-6.52 -1.89,-10.19 0,-3.6 0.62,-6.95 1.89,-10.26 1.27,-3.21 3.14,-5.77 5.56,-7.63 0.72,-0.58 1.51,-1.06 2.34,-1.47zm6.92 -0.47c-3.46,0 -6.37,0.91 -8.64,2.72l-0.01 0c-2.28,1.75 -4.05,4.18 -5.24,7.21 -1.23,3.19 -1.83,6.43 -1.83,9.9 0,3.54 0.62,6.85 1.82,9.82 1.19,3.01 2.9,5.34 5.25,7.14 2.28,1.8 5.19,2.72 8.65,2.72 3.5,0 6.46,-0.92 8.82,-2.72 2.3,-1.83 3.99,-4.16 5.16,-7.13 1.16,-2.85 1.74,-6.15 1.74,-9.83 0,-3.61 -0.57,-6.85 -1.74,-9.9 -1.2,-3.03 -2.96,-5.46 -5.24,-7.21 -2.39,-1.83 -5.25,-2.72 -8.74,-2.72zm0 41.15c-6.2,0 -11.04,-1.96 -14.8,-5.97 -3.73,-3.97 -5.54,-9.02 -5.54,-15.42 0,-6.27 1.87,-11.43 5.54,-15.35 3.76,-4.01 8.6,-5.97 14.8,-5.97 6.2,0 11.04,1.96 14.8,5.97 3.68,3.92 5.55,9.08 5.55,15.35 0,6.4 -1.82,11.45 -5.55,15.42 -3.76,4.01 -8.6,5.97 -14.8,5.97z"/>
   <path class="fil0" d="M330.63 244.79c-0.32,-0.32 -0.72,-0.48 -1.13,-0.48l-2.66 0 0 -0.33c2.66,-0.08 5.16,-0.4 7.66,-1.13l0.25 0.16 0 10.9c0.88,-2.5 2.5,-5.01 4.68,-7.42 2.17,-2.35 4.75,-3.64 7.58,-3.8 2.9,-0.08 5.4,0.89 7.58,2.91 -1.37,1.37 -2.1,2.98 -2.18,4.83l-0.32 0c-0.08,-1.77 -0.65,-3.22 -1.53,-4.43 -0.89,-1.13 -2.26,-1.77 -4.12,-1.86 -2.5,-0.08 -4.92,1.21 -7.42,3.88 -0.81,0.88 -1.61,1.93 -2.34,3.06 -0.89,1.45 -1.53,2.91 -1.93,4.36l0 26.38c0,0.56 0.16,1.05 0.48,1.37 0.32,0.32 0.73,0.49 1.21,0.49l2.18 0 0 0.32 -11.38 0 0 -0.32 2.26 0c0.41,0 0.81,-0.17 1.13,-0.49 0.32,-0.24 0.48,-0.73 0.48,-1.29l0 -35.74c0,-0.56 -0.16,-1.05 -0.48,-1.37z"/>
   <path class="fil0" d="M346.22 243.64c0.08,0 0.16,0 0.24,0.01 1.98,0.09 3.49,0.77 4.49,2.04 0.61,0.83 1.05,1.74 1.32,2.72 0.32,-1.01 0.86,-1.94 1.61,-2.78 -2,-1.72 -4.26,-2.52 -6.86,-2.44 -1.72,0.1 -3.34,0.63 -4.84,1.6 1.34,-0.77 2.68,-1.15 4.04,-1.15zm-15.19 39.86l3.81 0c-0.38,-0.41 -0.59,-0.99 -0.59,-1.68l0 -38.38c-1.16,0.32 -2.34,0.56 -3.59,0.73 0.11,0.08 0.22,0.17 0.32,0.27l0 0c0.41,0.41 0.63,1.01 0.63,1.72l0 35.74c0,0.7 -0.2,1.26 -0.58,1.6zm8.08 0.99l-12.36 0 0 -1.31 2.75 0c0.28,0 0.56,-0.12 0.78,-0.34l0.06 -0.05c0.17,-0.13 0.28,-0.47 0.28,-0.89l0 -35.74c0,-0.45 -0.12,-0.8 -0.34,-1.02 -0.22,-0.22 -0.5,-0.34 -0.78,-0.34l-3.16 0 0 -1.3 0.48 -0.01c2.84,-0.09 5.23,-0.44 7.54,-1.11l0.23 -0.07 0.65 0.44 0 8.78c0.92,-1.78 2.2,-3.59 3.82,-5.38 2.28,-2.46 4.95,-3.78 7.92,-3.95 3.05,-0.09 5.65,0.9 7.95,3.03l0.38 0.35 -0.37 0.36c-1.29,1.3 -1.95,2.77 -2.03,4.52l-0.02 0.47 -1.27 0 -0.02 -0.47c-0.08,-1.58 -0.54,-2.95 -1.44,-4.17 -0.8,-1.02 -2.06,-1.58 -3.74,-1.65 -2.31,-0.07 -4.62,1.14 -7.04,3.72 -0.8,0.88 -1.59,1.91 -2.28,2.99 -0.84,1.38 -1.47,2.78 -1.86,4.16l0 26.31c0,0.45 0.12,0.8 0.34,1.02 0.23,0.23 0.51,0.34 0.86,0.34l2.67 0 0 1.31z"/>
   <path class="fil0" d="M362.66 264.23c0.81,2.1 2.1,3.79 3.79,5.09 1.7,1.29 3.96,1.93 6.78,1.93 2.82,0 5.08,-0.64 6.78,-1.86 1.69,-1.2 2.9,-2.9 3.71,-4.99 0.72,-2.1 1.13,-4.44 1.13,-6.94 0,-2.51 -0.41,-4.93 -1.13,-7.1 -0.81,-2.18 -2.02,-3.88 -3.71,-5.25 -1.7,-1.29 -3.96,-1.94 -6.78,-1.94 -2.82,0 -5.08,0.65 -6.78,1.94 -1.69,1.29 -2.98,2.99 -3.79,5.08 -0.81,2.18 -1.21,4.52 -1.21,7.02 0,2.58 0.4,4.93 1.21,7.02zm29.05 17.59c1.28,3.22 1.45,6.21 0.56,8.88 -0.89,2.66 -2.59,4.92 -5.09,6.69 -3.95,2.66 -8.22,3.79 -12.98,3.47 -3.96,-0.08 -7.59,-0.89 -10.73,-2.42 -3.15,-1.53 -5.73,-4.03 -7.75,-7.42l7.91 -10.17 0.48 0.41c-1.61,2.01 -2.66,3.95 -3.06,5.81 -0.41,1.85 -0.49,3.54 -0.24,5 0.56,3.06 2.17,5.16 5,6.37 2.82,1.21 5.65,1.86 8.47,1.86 2.01,0 4.11,-0.25 6.37,-0.81 2.26,-0.49 4.28,-1.37 6.14,-2.58 1.04,-0.73 1.93,-1.54 2.74,-2.59 2.01,-2.33 2.5,-5.32 1.45,-8.79 -1.13,-2.66 -3.23,-4.19 -6.22,-4.6 -2.98,-0.4 -6.2,-0.48 -9.67,-0.24 -3.07,0.24 -5.81,0.16 -8.16,-0.08 -1.37,-0.24 -2.49,-0.73 -3.54,-1.45 -1.05,-0.73 -1.62,-1.94 -1.62,-3.55 0.16,-1.37 0.81,-2.5 2.02,-3.23 1.13,-0.73 2.34,-1.21 3.71,-1.45 -3.06,-1.05 -5.4,-2.74 -7.1,-5.16 -1.69,-2.35 -2.58,-5.25 -2.58,-8.56 0,-4.27 1.37,-7.82 4.19,-10.57 2.75,-2.66 6.46,-4.03 11.14,-4.03 2.82,0 5.41,0.56 7.58,1.61 0.73,-1.85 2.1,-3.38 4.12,-4.6 2.01,-1.2 4.59,-1.53 7.58,-1.13 -0.32,2.02 -0.32,3.48 0,4.2 -2.34,-1.21 -4.68,-1.61 -6.86,-1.21 -2.26,0.41 -3.71,1.45 -4.36,2.99 4.85,2.74 7.27,7.02 7.27,12.74 0,4.28 -1.37,7.83 -4.2,10.49 -2.82,2.74 -6.53,4.12 -11.13,4.12 -0.73,0 -1.45,-0.08 -2.34,-0.25 -0.89,-0.08 -1.78,-0.24 -2.5,-0.4 -1.13,0.24 -2.02,0.65 -2.58,1.37 -0.57,0.73 -0.73,1.46 -0.41,2.34 0.73,1.29 2.34,2.02 4.92,2.18 2.59,0.24 5.33,0.24 8.32,0.16 3.3,-0.16 5.8,-0.08 7.57,0.24 2.59,0.49 4.45,1.94 5.58,4.36z"/>
   <path class="fil0" d="M390.11 238.83c-1.97,0 -3.65,0.41 -5.01,1.22 -0.98,0.59 -1.8,1.26 -2.46,2.01 0.77,-0.51 1.73,-0.87 2.84,-1.07 1.99,-0.37 4.13,-0.08 6.25,0.82 -0.07,-0.74 -0.03,-1.71 0.13,-2.88 -0.6,-0.07 -1.19,-0.1 -1.75,-0.1zm-10.35 5.51c0.19,0.12 0.37,0.24 0.55,0.38 1.78,1.44 3.04,3.22 3.87,5.46 0.76,2.28 1.16,4.79 1.16,7.28 0,2.49 -0.39,4.88 -1.16,7.1 -0.86,2.26 -2.17,4.01 -3.89,5.24 -0.08,0.06 -0.18,0.12 -0.26,0.19 1.45,-0.65 2.76,-1.53 3.91,-2.65 2.68,-2.52 4.04,-5.93 4.04,-10.13 0,-5.53 -2.36,-9.68 -7.01,-12.31l-0.09 -0.05 -0.36 -0.18c-0.25,-0.12 -0.5,-0.23 -0.76,-0.33zm-12.57 -0.3c-1.85,0.65 -3.47,1.64 -4.83,2.96 -2.68,2.61 -4.05,6.04 -4.05,10.21 0,3.2 0.84,5.98 2.49,8.26 1.46,2.09 3.41,3.61 5.92,4.64 -0.19,-0.13 -0.39,-0.26 -0.57,-0.4 -1.79,-1.37 -3.13,-3.15 -3.95,-5.3l0 0c-0.83,-2.14 -1.24,-4.57 -1.24,-7.2 0,-2.54 0.41,-4.97 1.23,-7.19 0.83,-2.15 2.17,-3.93 3.96,-5.3 0.33,-0.25 0.67,-0.48 1.04,-0.68zm-4.07 20.01c0.76,1.98 1.98,3.61 3.63,4.87 1.6,1.22 3.78,1.84 6.48,1.84 2.67,0 4.85,-0.6 6.49,-1.77 1.55,-1.11 2.74,-2.72 3.54,-4.77 0.72,-2.1 1.09,-4.38 1.09,-6.76 0,-2.38 -0.38,-4.78 -1.1,-6.95 -0.77,-2.05 -1.93,-3.69 -3.56,-5.01 -1.58,-1.21 -3.76,-1.83 -6.46,-1.83 -2.7,0 -4.88,0.62 -6.48,1.84 -1.65,1.25 -2.87,2.89 -3.63,4.86 -0.78,2.11 -1.17,4.41 -1.17,6.84 0,2.51 0.39,4.81 1.17,6.84zm15.76 16.01c2.08,0 4.07,0.13 5.95,0.38 3.19,0.43 5.41,2.08 6.61,4.9l0.01 0.05c0.5,1.65 0.67,3.2 0.51,4.63 0.67,-2.45 0.43,-5.14 -0.71,-8 -1.07,-2.28 -2.77,-3.61 -5.2,-4.07 -1.75,-0.32 -4.19,-0.39 -7.47,-0.23 -2.56,0.07 -5.54,0.1 -8.38,-0.17 -2.74,-0.17 -4.49,-0.96 -5.31,-2.43l-0.03 -0.07c-0.37,-1.01 -0.21,-1.93 0.48,-2.81 0.05,-0.07 0.11,-0.15 0.17,-0.22 -0.5,0.22 -0.98,0.47 -1.45,0.78 -1.04,0.62 -1.63,1.57 -1.79,2.84 0.01,1.43 0.48,2.47 1.4,3.11 1.03,0.72 2.09,1.15 3.35,1.37 2.57,0.27 5.28,0.29 8.03,0.07 1.3,-0.09 2.58,-0.13 3.83,-0.13zm-22.56 10.99c1.96,3.18 4.43,5.52 7.37,6.94 0.33,0.17 0.68,0.33 1.02,0.47 -2.41,-1.31 -3.85,-3.38 -4.39,-6.3 -0.26,-1.53 -0.18,-3.28 0.24,-5.2 0.18,-0.81 0.47,-1.64 0.89,-2.5l-5.13 6.59zm19.46 10.36c-0.54,0 -1.07,-0.02 -1.62,-0.06 -4.04,-0.08 -7.72,-0.91 -10.91,-2.46 -3.2,-1.56 -5.87,-4.12 -7.95,-7.62l-0.18 -0.29 8.43 -10.84 1.25 1.05 -0.3 0.38c-1.59,1.99 -2.59,3.87 -2.97,5.6 -0.39,1.8 -0.47,3.42 -0.24,4.82 0.54,2.9 2.08,4.87 4.71,5.99 2.81,1.21 5.6,1.82 8.28,1.82 2.07,0 4.12,-0.26 6.25,-0.79 2.13,-0.46 4.08,-1.28 5.98,-2.52 1.05,-0.72 1.89,-1.51 2.62,-2.47 1.92,-2.22 2.38,-5.01 1.38,-8.32 -1.05,-2.46 -3,-3.9 -5.81,-4.28 -2.94,-0.39 -6.16,-0.48 -9.58,-0.23 -2.8,0.22 -5.57,0.19 -8.24,-0.09 -1.43,-0.25 -2.62,-0.73 -3.77,-1.53 -1.2,-0.83 -1.83,-2.2 -1.83,-3.96l0 -0.06c0.19,-1.58 0.97,-2.82 2.26,-3.59 0.74,-0.48 1.52,-0.86 2.34,-1.13 -2.47,-1.1 -4.41,-2.67 -5.88,-4.78 -1.78,-2.45 -2.68,-5.42 -2.68,-8.84 0,-4.45 1.46,-8.12 4.35,-10.92 2.85,-2.77 6.71,-4.18 11.48,-4.18 2.65,0 5.17,0.51 7.33,1.45 0.8,-1.74 2.18,-3.2 4.11,-4.36 2.05,-1.23 4.71,-1.63 7.91,-1.2l0.5 0.07 -0.08 0.5c-0.41,2.56 -0.2,3.55 -0.04,3.92l0.58 1.29 -1.26 -0.65c-2.24,-1.16 -4.44,-1.55 -6.54,-1.16 -1.85,0.33 -3.13,1.1 -3.8,2.3 4.72,2.83 7.11,7.18 7.11,12.94 0,4.48 -1.46,8.13 -4.35,10.85 -2.9,2.82 -6.76,4.25 -11.47,4.25 -0.73,0 -1.48,-0.07 -2.43,-0.25 -0.89,-0.08 -1.79,-0.24 -2.41,-0.38 -1.06,0.24 -1.76,0.61 -2.19,1.16 -0.47,0.61 -0.58,1.16 -0.34,1.83 0.65,1.13 2.12,1.75 4.5,1.9 2.8,0.26 5.75,0.22 8.26,0.15 3.34,-0.16 5.86,-0.08 7.69,0.25 2.73,0.52 4.73,2.08 5.92,4.64l0.01 0.03c1.32,3.3 1.52,6.4 0.58,9.21 -0.93,2.79 -2.7,5.12 -5.27,6.94 -3.6,2.43 -7.44,3.62 -11.69,3.62z"/>
   <path class="fil0" d="M405.82 246.32c-2.33,1.94 -4.11,4.44 -5.16,7.51 -1.05,3.14 -1.61,6.37 -1.61,9.67 0,2.1 0.24,4.2 0.64,6.22 0.4,2.1 1.13,4.11 2.1,5.97 -0.4,-1.54 -0.56,-3.23 -0.4,-5.08 0.08,-1.86 0.4,-3.55 0.89,-5.01 1.85,-4.92 5.4,-8.31 10.65,-10.32 3.62,-1.21 7.34,-1.7 11.21,-1.54 0.73,0 1.21,-0.24 1.45,-0.64 0.24,-0.4 0.41,-0.97 0.41,-1.53 -0.09,-2.18 -1.13,-4.12 -3.23,-5.81 -2.34,-1.78 -4.92,-2.58 -7.91,-2.51 -3.71,0.09 -6.7,1.13 -9.04,3.07zm-5.16 31.95c-3.47,-3.95 -5.24,-8.96 -5.24,-14.84 0,-6.05 1.77,-11.06 5.32,-14.93 3.55,-3.79 8.39,-5.81 14.44,-5.89 3.87,0 7.18,0.81 9.93,2.34 2.74,1.61 4.59,4.2 5.48,7.75 0.16,0.56 0.16,1.04 0,1.61 -0.16,0.56 -0.56,0.8 -1.29,0.72 -5.97,-1.2 -11.53,-0.88 -16.62,0.97 -5,1.94 -8.31,5.33 -9.92,10.17 -1.13,3.06 -1.13,6.78 0.08,11.21 1.37,1.94 3.06,3.47 5.16,4.6 2.02,1.13 4.44,1.7 7.26,1.7 4.12,0 7.83,-1.13 10.98,-3.39 3.14,-2.26 5.48,-5.41 6.86,-9.36l0.56 0.16c-1.37,4.19 -3.63,7.42 -6.94,9.76 -3.31,2.34 -7.18,3.47 -11.46,3.47 -6.21,0 -11.13,-2.01 -14.6,-6.05z"/>
   <path class="fil0" d="M425.38 253.96c1.32,0.12 2.66,0.32 4.02,0.59 0.54,0.06 0.65,-0.14 0.71,-0.38 0.14,-0.47 0.14,-0.86 0,-1.34 -0.85,-3.4 -2.61,-5.9 -5.25,-7.45 -1.51,-0.85 -3.2,-1.46 -5.05,-1.83 1.15,0.43 2.23,1.03 3.26,1.81 2.19,1.77 3.33,3.85 3.42,6.19 0,0.65 -0.17,1.3 -0.48,1.8 -0.12,0.21 -0.31,0.44 -0.63,0.61zm-10.12 -10.21c-0.13,0 -0.26,0 -0.39,0 -3.52,0.08 -6.46,1.07 -8.73,2.95 -2.33,1.93 -4.02,4.38 -5.01,7.28 -1.05,3.16 -1.59,6.37 -1.59,9.52 0,1.95 0.22,4.01 0.64,6.12 0.16,0.85 0.38,1.69 0.65,2.52 0,-0.52 0.02,-1.05 0.06,-1.58 0.08,-1.81 0.39,-3.53 0.92,-5.11 1.9,-5.07 5.48,-8.54 10.93,-10.64 3.67,-1.22 7.39,-1.73 11.42,-1.56 0.34,0 0.8,-0.07 1,-0.41 0.21,-0.34 0.34,-0.82 0.34,-1.27 -0.08,-2.06 -1.07,-3.84 -3.04,-5.43 -2.12,-1.61 -4.49,-2.39 -7.2,-2.39zm-7.25 0.57c-2.67,0.95 -4.98,2.46 -6.91,4.52 -3.44,3.76 -5.19,8.66 -5.19,14.59 0,5.76 1.72,10.64 5.13,14.51l0 0.01c2.07,2.41 4.7,4.09 7.84,5.02 -0.39,-0.17 -0.76,-0.35 -1.12,-0.56 -1.85,-0.99 -3.4,-2.29 -4.73,-3.95l0.36 1.37 -2.04 -3.91c-1.02,-1.96 -1.74,-4.01 -2.14,-6.11 -0.44,-2.17 -0.66,-4.29 -0.66,-6.31 0,-3.26 0.55,-6.57 1.64,-9.83 1.05,-3.08 2.84,-5.68 5.32,-7.73 0.77,-0.63 1.6,-1.18 2.5,-1.62zm7.25 40.5c-6.38,0 -11.42,-2.09 -14.97,-6.22 -3.56,-4.06 -5.37,-9.17 -5.37,-15.17 0,-6.18 1.84,-11.32 5.46,-15.27 3.68,-3.93 8.65,-5.96 14.8,-6.05 3.9,0 7.31,0.81 10.17,2.41 2.89,1.7 4.81,4.41 5.72,8.06 0.19,0.63 0.19,1.21 0,1.87 -0.16,0.56 -0.61,1.21 -1.82,1.08 -5.91,-1.2 -11.41,-0.88 -16.4,0.94 -4.82,1.87 -8.06,5.19 -9.62,9.86 -1.1,2.97 -1.07,6.62 0.06,10.84 1.35,1.88 2.97,3.31 4.95,4.37 1.94,1.09 4.3,1.64 7.02,1.64 4.05,0 7.64,-1.11 10.69,-3.3 3.1,-2.23 5.35,-5.29 6.68,-9.11l0.15 -0.45 1.51 0.43 -0.16 0.49c-1.42,4.36 -3.75,7.63 -7.12,10.01 -3.35,2.37 -7.3,3.57 -11.75,3.57z"/>
   <path class="fil0" d="M462.54 265.93c2.34,2.01 3.55,4.75 3.47,8.39 -0.56,5.16 -3.79,8.31 -9.84,9.52 -1.54,0.32 -3.06,0.48 -4.6,0.48 -2.5,0 -4.76,-0.24 -6.86,-0.81 -2.18,-0.56 -4.19,-1.53 -6.05,-2.98l-1.29 -7.26 0.65 -0.16c0.56,3.14 2.01,5.72 4.27,7.66 2.26,2.02 5.33,2.99 9.2,2.99 3.23,-0.08 5.81,-0.97 7.83,-2.5 1.93,-1.54 2.98,-3.72 3.06,-6.62 -0.08,-2.66 -1.05,-4.76 -2.9,-6.29 -1.94,-1.54 -4.2,-2.83 -6.78,-3.88l-2.1 -0.96c-2.98,-1.21 -5.72,-2.67 -8.07,-4.36 -2.33,-1.69 -3.63,-4.11 -3.87,-7.26 0.08,-3.07 1.54,-5.4 4.44,-6.94 2.91,-1.53 5.97,-2.34 9.12,-2.34 1.69,0 3.55,0.24 5.48,0.81 1.94,0.56 3.71,1.45 5.41,2.74l1.77 6.29 -0.64 0.16c-0.89,-3.22 -2.51,-5.64 -4.68,-7.17 -2.26,-1.54 -4.68,-2.26 -7.26,-2.26 -2.83,0 -5.17,0.64 -7.1,2.01 -2.02,1.37 -2.99,3.47 -2.91,6.13 0.17,2.34 1.46,4.28 3.79,5.73 2.35,1.53 5.09,2.91 8.15,4.12 3.15,1.21 5.97,2.82 8.31,4.76z"/>
   <path class="fil0" d="M458.38 244.15c0.49,0.26 0.98,0.55 1.46,0.87 1.49,1.06 2.71,2.47 3.62,4.23l-0.79 -2.79c-1.34,-1.01 -2.76,-1.77 -4.29,-2.31zm-19.26 36.1c1.72,1.32 3.6,2.23 5.72,2.78 0.09,0.03 0.17,0.05 0.26,0.07 -1.18,-0.49 -2.23,-1.15 -3.14,-1.96 -1.58,-1.35 -2.77,-3 -3.56,-4.92l0.72 4.03zm0.04 -28.38c0.24,3.02 1.44,5.26 3.67,6.88 2.22,1.61 4.9,3.06 7.96,4.3l2.12 0.97c2.59,1.06 4.91,2.38 6.87,3.94 1.97,1.63 3.01,3.87 3.1,6.66 -0.09,3.03 -1.18,5.38 -3.25,7.03 -0.79,0.59 -1.65,1.09 -2.58,1.48 5.18,-1.29 7.96,-4.2 8.47,-8.87 0.07,-3.36 -1,-5.98 -3.3,-7.96 -2.3,-1.9 -5.04,-3.47 -8.17,-4.67 -3.15,-1.24 -5.92,-2.65 -8.24,-4.16 -2.49,-1.55 -3.84,-3.6 -4.01,-6.11 -0.09,-2.86 0.99,-5.13 3.12,-6.58 0.19,-0.14 0.39,-0.27 0.6,-0.39 -0.74,0.28 -1.47,0.62 -2.19,1 -2.72,1.43 -4.09,3.56 -4.17,6.48zm12.41 32.95c-2.64,0 -4.93,-0.27 -6.99,-0.83 -2.31,-0.6 -4.35,-1.6 -6.22,-3.07l-0.15 -0.12 -1.41 -7.9 1.61 -0.4 0.09 0.52c0.55,3.02 1.93,5.5 4.12,7.37 2.16,1.93 5.06,2.87 8.87,2.87 2.99,-0.07 5.53,-0.88 7.53,-2.4 1.85,-1.46 2.79,-3.51 2.86,-6.24 -0.07,-2.5 -0.96,-4.44 -2.72,-5.89 -1.88,-1.49 -4.12,-2.77 -6.65,-3.8l-2.11 -0.97c-3.11,-1.26 -5.86,-2.75 -8.15,-4.41 -2.46,-1.78 -3.83,-4.34 -4.08,-7.62l0 -0.03 0 -0.03c0.08,-3.28 1.66,-5.76 4.7,-7.36 4.76,-2.51 9.85,-3.06 14.97,-1.57 2.03,0.59 3.85,1.52 5.57,2.83l0.13 0.1 1.96 6.94 -1.61 0.41 -0.13 -0.48c-0.85,-3.08 -2.36,-5.4 -4.48,-6.9 -2.16,-1.46 -4.44,-2.17 -6.98,-2.17 -2.76,0 -4.99,0.63 -6.82,1.93 -1.86,1.27 -2.77,3.19 -2.69,5.71 0.15,2.15 1.34,3.95 3.56,5.32 2.27,1.49 4.98,2.86 8.07,4.07 3.21,1.24 6.06,2.87 8.44,4.84l0.01 0.01c2.49,2.15 3.72,5.11 3.64,8.78 -0.59,5.4 -4.03,8.75 -10.24,9.99 -1.56,0.33 -3.14,0.5 -4.7,0.5z"/>
   <path class="fil0" d="M176.29 309.35c0,-1.02 -0.29,-1.79 -0.85,-2.31 -0.56,-0.52 -1.47,-0.78 -2.72,-0.78l-3.06 0 0 6.13 3.06 0c2.38,0 3.57,-1.01 3.57,-3.04zm0.28 3.15c-0.85,0.8 -2.14,1.2 -3.85,1.2l-3.06 0 0 6.48 -1.53 0 0 -15.2 4.59 0c1.7,0 2.98,0.4 3.84,1.19 0.87,0.8 1.29,1.86 1.29,3.18 0,1.3 -0.42,2.36 -1.28,3.15z"/>
   <path class="fil0" d="M188.89 319.81c-0.76,-0.35 -1.36,-0.83 -1.79,-1.46 -0.44,-0.62 -0.67,-1.32 -0.7,-2.09l1.61 0c0.08,0.75 0.4,1.39 0.98,1.95 0.58,0.56 1.43,0.84 2.55,0.84 1.02,0 1.84,-0.26 2.44,-0.79 0.6,-0.53 0.9,-1.2 0.9,-2.02 0,-0.65 -0.16,-1.18 -0.49,-1.57 -0.34,-0.4 -0.75,-0.7 -1.25,-0.9 -0.49,-0.19 -1.17,-0.41 -2.04,-0.64 -1.02,-0.27 -1.82,-0.54 -2.41,-0.8 -0.6,-0.26 -1.1,-0.67 -1.53,-1.22 -0.42,-0.55 -0.63,-1.3 -0.63,-2.24 0,-0.79 0.21,-1.48 0.61,-2.1 0.41,-0.61 0.98,-1.1 1.72,-1.45 0.74,-0.34 1.59,-0.52 2.55,-0.52 1.4,0 2.54,0.35 3.4,1.03 0.86,0.69 1.36,1.58 1.49,2.67l-1.65 0c-0.11,-0.62 -0.45,-1.18 -1.03,-1.67 -0.58,-0.48 -1.36,-0.72 -2.34,-0.72 -0.92,0 -1.68,0.24 -2.29,0.72 -0.61,0.49 -0.91,1.16 -0.91,2 0,0.63 0.16,1.15 0.5,1.54 0.33,0.39 0.75,0.69 1.25,0.89 0.5,0.2 1.18,0.42 2.03,0.65 0.99,0.28 1.78,0.55 2.4,0.82 0.6,0.27 1.12,0.68 1.54,1.23 0.42,0.55 0.63,1.29 0.63,2.22 0,0.71 -0.19,1.38 -0.57,2.02 -0.38,0.64 -0.93,1.15 -1.67,1.54 -0.74,0.4 -1.63,0.59 -2.65,0.59 -1.01,0 -1.89,-0.17 -2.65,-0.52z"/>
   <polygon class="fil0" points="207.41,320.18 205.89,320.18 205.89,304.98 207.41,304.98 "/>
   <path class="fil0" d="M219.05 315.97c0.52,0.98 1.23,1.73 2.13,2.25 0.9,0.53 1.92,0.78 3.04,0.78 1.14,0 2.15,-0.25 3.05,-0.78 0.9,-0.52 1.61,-1.27 2.13,-2.25 0.52,-0.98 0.79,-2.11 0.79,-3.4 0,-1.3 -0.27,-2.42 -0.79,-3.4 -0.52,-0.97 -1.23,-1.72 -2.13,-2.24 -0.9,-0.52 -1.91,-0.78 -3.05,-0.78 -1.12,0 -2.14,0.26 -3.04,0.78 -0.9,0.52 -1.61,1.27 -2.13,2.24 -0.52,0.98 -0.78,2.1 -0.78,3.4 0,1.29 0.26,2.42 0.78,3.4zm10.9 7.19l-3.4 -3.16c-0.74,0.23 -1.51,0.33 -2.33,0.33 -1.4,0 -2.67,-0.33 -3.82,-0.99 -1.15,-0.66 -2.05,-1.58 -2.71,-2.76 -0.66,-1.18 -0.99,-2.52 -0.99,-4.01 0,-1.5 0.33,-2.83 0.99,-4.02 0.66,-1.18 1.56,-2.1 2.71,-2.76 1.15,-0.66 2.42,-0.99 3.82,-0.99 1.43,0 2.71,0.33 3.86,0.99 1.14,0.66 2.04,1.58 2.7,2.76 0.64,1.19 0.97,2.52 0.97,4.02 0,1.53 -0.34,2.9 -1.02,4.1 -0.68,1.19 -1.62,2.11 -2.8,2.75l4.06 3.74 -2.04 0z"/>
   <path class="fil0" d="M242.54 304.98l0 9.57c0,1.5 0.36,2.62 1.07,3.35 0.73,0.72 1.71,1.08 2.95,1.08 1.25,0 2.23,-0.35 2.93,-1.07 0.7,-0.72 1.05,-1.84 1.05,-3.36l0 -9.57 1.52 0 0 9.55c0,1.92 -0.5,3.38 -1.53,4.35 -1.02,0.97 -2.35,1.45 -3.99,1.45 -1.64,0 -2.97,-0.48 -3.99,-1.45 -1.02,-0.97 -1.53,-2.43 -1.53,-4.35l0 -9.55 1.52 0z"/>
   <polygon class="fil0" points="263.51,320.18 261.99,320.18 261.99,304.98 263.51,304.98 "/>
   <path class="fil0" d="M281.84 315.31l-3 -8.22 -3 8.22 6 0zm0.46 1.26l-6.92 0 -1.32 3.61 -1.61 0 5.54 -15.01 1.72 0 5.52 15.01 -1.6 0 -1.33 -3.61z"/>
   <polygon class="fil0" points="303.09,304.98 303.09,306.24 298.87,306.24 298.87,320.18 297.35,320.18 297.35,306.24 293.11,306.24 293.11,304.98 "/>
   <path class="fil0" d="M313.56 312.59l3.06 0c1.19,0 2.08,-0.29 2.69,-0.87 0.6,-0.58 0.9,-1.36 0.9,-2.33 0,-1 -0.29,-1.77 -0.87,-2.31 -0.58,-0.55 -1.49,-0.82 -2.74,-0.82l-3.04 0 0 6.33zm6.57 7.59l-3.77 -6.35 -2.8 0 0 6.35 -1.53 0 0 -15.2 4.57 0c1.7,0 2.98,0.4 3.86,1.21 0.88,0.82 1.32,1.88 1.32,3.2 0,1.1 -0.32,2.04 -0.95,2.82 -0.63,0.77 -1.56,1.28 -2.8,1.51l3.92 6.46 -1.82 0z"/>
   <path class="fil0" d="M339.68 315.31l-3 -8.22 -3.01 8.22 6.01 0zm0.45 1.26l-6.91 0 -1.33 3.61 -1.61 0 5.55 -15.01 1.72 0 5.52 15.01 -1.61 0 -1.33 -3.61z"/>
   <path class="fil0" d="M354.25 314.15c28.59,-0.62 60.38,-0.61 88.99,0 -28.61,0.61 -60.4,0.62 -88.99,0z"/>
   <path class="fil0" d="M67.96 314.15c28.59,-0.62 60.38,-0.61 89,0 -28.62,0.61 -60.4,0.62 -89,0z"/>
   <polygon class="fil1" points="312.5,115.42 312.5,115.42 312.5,115.64 312.5,115.64 312.5,115.53 "/>
   <path class="fil2" d="M289.05 140.36l0 4.99c0.02,-0.1 0.04,-0.21 0.04,-0.32l0 -7.89 -0.04 0 0 3.22z"/>
   <path class="fil2" d="M289.05 133.66l0 -4.89c-0.02,0.1 -0.03,0.21 -0.03,0.32l0 7.82 0.03 0 0 -3.25 0 0z"/>
   <path class="fil2" d="M287.59 151.32c-0.18,0.02 -0.37,0.08 -0.54,0.18 -0.53,0.3 -1.06,0.59 -1.61,0.77 0.54,-0.17 1.06,-0.46 1.62,-0.76 0.18,-0.1 0.35,-0.16 0.53,-0.19z"/>
   <path class="fil2" d="M292.66 128.69c-0.54,-0.19 -1.07,-0.48 -1.61,-0.78 -0.17,-0.1 -0.35,-0.16 -0.53,-0.17 0.17,0.02 0.35,0.08 0.53,0.18 0.55,0.3 1.08,0.59 1.61,0.77z"/>
   <path class="fil2" d="M289.05 152.36l0 10.32c0.01,0 0.02,0 0.04,0l0 -10c0,-0.11 -0.02,-0.22 -0.04,-0.32z"/>
   <path class="fil2" d="M289.05 121.76l0 -4.99 0 -5.63c-0.01,0 -0.02,0 -0.04,0l0 10.31c0,0.11 0.02,0.21 0.04,0.31z"/>
   <polygon class="fil1" points="289.05,136.91 289.05,136.91 289.05,137.14 289.05,137.14 289.05,137.02 "/>
   <path class="fil3" d="M289.05 152.36l0 -0.02c-0.15,-0.75 -0.77,-1.14 -1.46,-1.02 0.66,-0.07 1.3,0.37 1.46,1.04z"/>
   <path class="fil3" d="M287 146.19c-1.88,-1.18 -4.22,-1.45 -5.5,0.74 -1.05,1.77 -0.37,4.19 1.43,5.18 0.89,0.48 1.71,0.43 2.51,0.16 -0.76,0.25 -1.53,0.29 -2.4,-0.19 -1.81,-0.98 -2.58,-3.37 -1.54,-5.14 1.29,-2.18 3.62,-1.91 5.51,-0.74 0.81,0.51 1.83,0.04 2.04,-0.82l0 -0.03c-0.2,0.87 -1.23,1.35 -2.05,0.84z"/>
   <path class="fil0" d="M264.32 203.73c-2.79,3.74 -7.57,5.74 -14.18,5.82l-11.47 0c-0.4,0 -0.71,-0.08 -0.95,-0.16 -0.24,-0.08 -0.4,-0.4 -0.4,-0.96l0 -51.12c0,-0.8 0.4,-1.2 1.2,-1.2l11.06 0c2.95,0.08 5.34,1.04 7.17,2.79 1.83,1.75 2.71,4.14 2.71,7.09 -0.32,3.82 -1.51,6.37 -3.59,7.64 -2.15,1.36 -4.37,2.15 -6.68,2.55 -1.52,0.32 -2.71,0.72 -3.75,1.12 -1.03,0.47 -1.59,1.19 -1.75,2.22 0,0.88 0.32,1.52 0.88,1.84 0.55,0.39 1.27,0.55 2.15,0.55 1.99,-0.08 3.82,-0.47 5.41,-1.19 0.96,-0.4 1.99,-0.72 3.19,-0.96 3.9,-0.71 6.92,0.16 9.08,2.47 2.14,2.39 3.34,5.5 3.58,9.24 0.4,4.46 -0.88,8.52 -3.66,12.26zm7.16 -12.82c-0.24,-3.5 -1.27,-6.45 -3.18,-8.68 -1.91,-2.31 -4.54,-3.66 -7.97,-4.06 -1.83,-0.16 -3.42,-0.08 -4.69,0.32 -1.36,0.4 -2.55,0.88 -3.59,1.51 -1.59,0.96 -3.42,1.44 -5.41,1.52 -0.64,0 -1.2,-0.16 -1.59,-0.4 -0.48,-0.32 -0.72,-0.72 -0.8,-1.36 0.08,-1.11 0.8,-1.91 2.15,-2.23 1.03,-0.23 2.15,-0.39 3.5,-0.47 1.52,-0.16 3.03,-0.4 4.62,-0.72 2.15,-0.48 3.98,-1.43 5.57,-2.87 1.52,-1.35 2.47,-3.66 2.87,-6.92 0.08,-2.95 -0.56,-5.18 -1.83,-6.77 -1.27,-1.6 -2.95,-2.71 -5.1,-3.35 -2.15,-0.56 -4.53,-0.88 -7.08,-0.88l-12.08 0 0 -25.8c0,-0.48 0.15,-0.79 0.47,-1.03 0.32,-0.24 0.72,-0.32 1.12,-0.32l2.54 0 0 -0.32 -7.64 0c-0.24,6.37 -2.31,12.1 -6.13,17.2 -1.51,1.83 -3.11,3.5 -4.78,5.02 -1.99,1.75 -3.66,3.66 -5.18,5.73 -1.51,2.15 -2.46,4.86 -2.86,8.2 -0.4,3.35 0,7.81 1.35,13.46l-19.99 -49.61 -7.4 0 0 0.32 2.47 0c1.11,-0.08 1.67,0.39 1.67,1.51l0 51.04c0,0.48 -0.16,0.8 -0.48,1.04 -0.4,0.24 -0.79,0.32 -1.19,0.32l-2.47 0 0 0.32 8.92 0 0 -0.32 -2.55 0c-0.4,0 -0.8,-0.08 -1.12,-0.32 -0.31,-0.24 -0.47,-0.56 -0.55,-1.04l0 -50.16 20.94 51.84 0.56 0 1.83 -5.1c-1.2,-4.38 -1.75,-8.52 -1.51,-12.58 0.23,-3.98 1.91,-7.81 5.09,-11.39 1.04,-1.19 2.15,-2.31 3.35,-3.34 1.27,-1.2 2.46,-2.47 3.66,-3.75 3.35,-3.9 5.41,-8.44 6.29,-13.45 0.16,14.38 0.32,28.77 0.49,43.15 -0.02,0.03 -0.03,0.04 -0.03,0.06l0 32.12c0,0.48 -0.16,0.88 -0.48,1.04 -0.32,0.24 -0.72,0.31 -1.11,0.31l-2.55 0 0 0.4 21.26 0c5.01,0 9.08,-0.87 12.18,-2.78 3.1,-1.84 5.34,-4.22 6.69,-7.09 1.35,-2.95 1.91,-6.05 1.75,-9.32z"/>
   <path class="fil0" d="M253.91 156.48c1.19,0.48 2.25,1.17 3.18,2.06 1.9,1.82 2.86,4.32 2.86,7.45 -0.33,4.01 -1.61,6.71 -3.82,8.06 -1.94,1.23 -4.01,2.06 -6.3,2.51 0.02,0 0.03,0 0.04,0 1.44,-0.15 2.94,-0.38 4.56,-0.71 2.03,-0.45 3.78,-1.35 5.33,-2.74 1.42,-1.27 2.33,-3.5 2.71,-6.63 0.07,-2.7 -0.51,-4.87 -1.73,-6.4 -1.23,-1.53 -2.81,-2.57 -4.85,-3.17 -0.64,-0.17 -1.31,-0.31 -1.98,-0.43zm-61.2 -27.9l21.57 53.39 1.52 -4.26 -0.5 0.17 -19.86 -49.3 -2.73 0zm-0.11 53.55l0.45 0c-0.09,-0.1 -0.16,-0.2 -0.22,-0.32 -0.06,0.11 -0.14,0.22 -0.23,0.32zm65.25 -3.11c2.82,0 5.13,0.96 6.91,2.87 2.22,2.47 3.47,5.68 3.71,9.55 0.4,4.46 -0.86,8.7 -3.76,12.59 -1.69,2.28 -4.07,3.92 -7.1,4.9 1.98,-0.45 3.69,-1.13 5.17,-2.04 3,-1.76 5.18,-4.08 6.5,-6.87 1.29,-2.81 1.86,-5.86 1.71,-9.08 -0.24,-3.47 -1.27,-6.29 -3.07,-8.38 -1.85,-2.24 -4.35,-3.51 -7.64,-3.9 -1.83,-0.15 -3.35,-0.05 -4.5,0.3 -0.6,0.18 -1.15,0.37 -1.65,0.57 0.35,-0.1 0.72,-0.18 1.09,-0.25 0.92,-0.17 1.8,-0.26 2.63,-0.26zm-8.28 -22.41l-11.06 0c-0.52,0 -0.69,0.17 -0.69,0.7l0 51.12c0,0.4 0.09,0.5 0.09,0.5 0.14,0.04 0.41,0.12 0.77,0.12l11.46 0c6.42,-0.08 11.06,-1.97 13.78,-5.61 2.78,-3.74 3.95,-7.64 3.56,-11.93 -0.23,-3.65 -1.39,-6.66 -3.45,-8.95 -2.06,-2.2 -4.96,-2.98 -8.62,-2.31 -1.12,0.22 -2.13,0.53 -3.09,0.93 -1.62,0.73 -3.51,1.15 -5.58,1.23l-0.01 0c-1.04,0 -1.84,-0.21 -2.45,-0.65 -0.68,-0.39 -1.08,-1.19 -1.08,-2.23l0 -0.08c0.19,-1.21 0.85,-2.06 2.03,-2.61 0.85,-0.32 2.15,-0.78 3.85,-1.14 2.4,-0.42 4.53,-1.23 6.53,-2.49 1.92,-1.18 3.05,-3.63 3.35,-7.26 0,-2.81 -0.86,-5.07 -2.55,-6.69 -1.76,-1.68 -4.06,-2.58 -6.84,-2.65zm-15.78 52.99l3.39 0c-0.19,-0.2 -0.35,-0.56 -0.35,-1.17l0 -51.12c0,-0.55 0.15,-0.97 0.45,-1.26l-0.91 0 0 -26.3c0,-0.48 0.13,-0.87 0.4,-1.17l-2.94 0c-0.07,1.49 -0.25,2.96 -0.53,4.39l0.48 0.04 0.48 43.28 -0.03 0.06 0 32c0,0.53 -0.15,0.97 -0.44,1.25zm17.07 1l-21.76 0 0 -1.39 3.05 0c0.34,0 0.62,-0.08 0.81,-0.22l0.08 -0.05c0.12,-0.06 0.2,-0.3 0.2,-0.59l0 -32.24 0.03 -0.05 -0.44 -39.09c-1.15,3.63 -2.97,6.93 -5.46,9.83 -1.2,1.28 -2.42,2.58 -3.7,3.78 -1.19,1.03 -2.3,2.14 -3.31,3.3 -3.07,3.46 -4.74,7.19 -4.98,11.1 -0.22,3.84 0.27,7.9 1.5,12.42l0.04 0.15 -2 5.57 -1.24 0 -0.13 -0.31 -19.99 -49.47 0 47.57c0.07,0.4 0.2,0.56 0.36,0.68 0.2,0.15 0.47,0.22 0.82,0.22l3.04 0 0 1.31 -9.91 0 0 -1.31 2.97 0c0.35,0 0.64,-0.07 0.91,-0.23 0.16,-0.12 0.26,-0.28 0.26,-0.63l0 -51.04c0,-0.4 -0.08,-0.68 -0.24,-0.83 -0.17,-0.15 -0.47,-0.22 -0.9,-0.19l-3 0 0 -1.31 8.24 0 0.12 0.31 18.02 44.71c-0.5,-3.26 -0.61,-6.08 -0.33,-8.43 0.41,-3.42 1.37,-6.18 2.95,-8.42 1.65,-2.26 3.37,-4.17 5.26,-5.82 1.63,-1.49 3.23,-3.16 4.72,-4.97 3.76,-5 5.78,-10.7 6.02,-16.9l0.01 -0.48 8.62 0 0 1.31 -3.04 0c-0.35,0 -0.63,0.08 -0.82,0.22 -0.17,0.13 -0.28,0.29 -0.28,0.64l0 25.31 11.59 0c2.5,0 4.93,0.3 7.21,0.89 2.25,0.67 4,1.82 5.36,3.52 1.36,1.71 2.02,4.09 1.94,7.09 -0.42,3.42 -1.43,5.85 -3.03,7.28 -1.68,1.52 -3.58,2.49 -5.8,2.98 -1.66,0.34 -3.19,0.57 -4.67,0.73 -1.31,0.08 -2.4,0.23 -3.45,0.47 -1.09,0.25 -1.68,0.83 -1.76,1.73 0.06,0.46 0.22,0.72 0.57,0.96 0.33,0.19 0.81,0.31 1.32,0.31 1.95,-0.08 3.69,-0.56 5.16,-1.44 0.99,-0.62 2.21,-1.13 3.7,-1.57 1.28,-0.4 2.88,-0.51 4.88,-0.33 3.52,0.4 6.31,1.83 8.3,4.24 1.93,2.25 3.05,5.27 3.3,8.96l0 0.01c0.16,3.38 -0.44,6.59 -1.8,9.54 -1.41,2.99 -3.72,5.45 -6.89,7.31 -3.12,1.92 -7.18,2.86 -12.43,2.86z"/>
   <path class="fil4" d="M285.67 153.87c-0.2,0.03 -0.41,0.1 -0.61,0.21 -0.65,0.35 -1.26,0.69 -1.88,0.89 -0.93,0.32 -1.88,0.37 -2.91,-0.19 -2.09,-1.14 -2.87,-3.96 -1.66,-6.01 1.49,-2.53 4.2,-2.22 6.38,-0.85 0.95,0.59 2.14,0.03 2.38,-0.98l0 -5.78 0 -3.74 0 0 0 -0.27 -0.05 0 0 0.22 -9.65 0c-0.74,-0.2 -1.22,-0.92 -1.16,-1.65 0,-0.27 0.06,-0.54 0.21,-0.8 0.56,-0.99 1.08,-1.97 1.13,-3 0.01,-0.53 -0.12,-1.07 -0.43,-1.64 -1.13,-2.1 -3.95,-2.87 -6,-1.67 -1.3,0.77 -1.85,1.85 -1.89,3.03 -0.01,1.07 0.4,2.21 1.04,3.23 0.19,0.32 0.26,0.66 0.23,0.99 -0.01,0.69 -0.49,1.33 -1.19,1.51l-5.83 0 -2.57 0c-0.02,0.04 -0.05,0.08 -0.08,0.12 -0.72,1.18 -0.57,2.07 0.51,2.81 0.69,0.48 1.42,0.89 2.02,1.51 0.93,0.94 0.99,1.5 0.28,2.67 -0.79,1.32 -0.79,1.37 0.44,2.3 0.32,0.26 0.67,0.44 0.21,0.92 -0.68,0.7 -0.43,1.38 0.15,1.89 0.82,0.71 0.94,1.63 0.79,2.66 -0.14,0.89 -0.34,1.77 -0.5,2.66 -0.45,2.4 0.18,3.51 2.34,4.14 2.26,0.66 4.51,0.09 6.76,-0.13 1.52,-0.15 3,-0.67 4.55,-0.29 1,0.25 1.56,0.86 1.68,1.99 0.19,1.63 0.68,3.2 0.96,4.82 0.23,1.31 0.8,1.72 1.99,1.67 0.99,-0.05 2.41,-0.07 4.05,-0.07l0.01 -11.97c-0.19,-0.78 -0.93,-1.28 -1.7,-1.2z"/>
   <path class="fil5" d="M294.84 102.37c-0.73,0.11 -1.45,0.28 -2.16,0.48l1.51 6.35 1.35 5.62c0.46,0.93 1.76,1.19 2.53,0.4l0 0c1.82,-1.84 4.37,-2.77 6.41,-0.65l0 0c1.66,1.71 1.56,4.63 -0.22,6.23l0 0c-0.87,0.78 -1.81,0.95 -2.79,0.86l0 0c-0.64,-0.06 -1.32,-0.24 -2.03,-0.43l0 0c-0.22,-0.06 -0.44,-0.08 -0.64,-0.07l0 0c-0.77,0.1 -1.38,0.77 -1.37,1.57l0 0 1.31 5.51 0 0 0.88 3.66 0.03 0.14 0.03 0.13 0.04 -0.01 9.51 -2.28c0.93,0.11 1.62,1.04 1.33,2.02l0 0c-0.5,1.7 -0.89,3.35 0.42,4.81l0 0c1.59,1.77 4.51,1.87 6.23,0.22l0 0c2.11,-2.03 1.18,-4.59 -0.65,-6.4l0 0c-0.75,-0.75 -0.56,-1.93 0.25,-2.45l0 0 5.81 -1.39c0.3,-2.14 0.28,-4.26 -0.06,-6.23l0 0c-1.01,-5.09 -2.98,-9.02 -6.1,-11.88l0 0c-5.06,-4.64 -10.75,-6.6 -16.79,-6.61l0 0c-1.58,0 -3.2,0.14 -4.83,0.4l0 0z"/>
   <path class="fil6" d="M305.28 167.11c1.41,-0.07 0.73,-0.96 0.07,-2.33 -5.29,-11.12 1.01,-20.08 2.05,-21.34 1.54,-1.88 2.73,-3.93 3.56,-6.02l-5.98 0c-0.91,0.31 -1.37,1.43 -0.82,2.32 1.37,2.19 1.68,4.9 -0.85,6.39 -2.05,1.2 -4.87,0.43 -6.01,-1.67 -0.93,-1.72 -0.16,-3.24 0.71,-4.77 0.51,-0.89 0.05,-1.96 -0.83,-2.27l-9.77 0 0 9.16c0,0.12 -0.02,0.25 -0.04,0.36l0 0.04c-0.25,1 -1.43,1.54 -2.37,0.95 -2.19,-1.36 -4.9,-1.67 -6.39,0.86 -1.2,2.05 -0.31,4.82 1.78,5.96 1.02,0.55 1.91,0.51 2.79,0.22 0.63,-0.21 1.25,-0.55 1.87,-0.9 0.2,-0.12 0.41,-0.18 0.62,-0.2 0.8,-0.14 1.52,0.3 1.69,1.18l0 0.02c0.03,0.12 0.05,0.24 0.05,0.37l0 11.6c6.38,-0.03 16.13,0.17 17.87,0.07z"/>
   <path class="fil7" d="M296.13 121.42c-1.49,-2.53 -4.2,-2.22 -6.39,-0.86 -0.94,0.59 -2.14,0.04 -2.37,-0.97 -0.03,-0.12 -0.05,-0.24 -0.05,-0.37l0 -11.94c-3.26,0.15 -6.43,1.13 -9.48,2.62 -0.82,0.4 -1.62,0.84 -2.42,1.29 -5.6,3.17 -8.71,8.04 -8.45,15.18 0.15,4 -1.63,6.92 -4.27,9.36 -0.48,0.45 -0.95,0.89 -1.34,1.42 -0.05,0.07 -0.1,0.14 -0.15,0.22l2.58 0 5.82 0c0.7,-0.18 1.18,-0.82 1.19,-1.51 0.01,-0.29 -0.06,-0.58 -0.24,-0.86 -0.66,-1.07 -1.07,-2.25 -1.03,-3.36 0.04,-1.18 0.59,-2.26 1.89,-3.03 2.05,-1.21 4.87,-0.43 6,1.67 0.31,0.57 0.44,1.11 0.43,1.65 -0.01,1.07 -0.55,2.1 -1.14,3.12 -0.12,0.22 -0.18,0.44 -0.2,0.66 -0.06,0.74 0.42,1.46 1.16,1.66l9.65 0 0 -0.22 0 -9.06c0,-0.13 0.02,-0.26 0.05,-0.37 0.18,-0.78 0.93,-1.29 1.7,-1.21 0.21,0.02 0.42,0.09 0.62,0.2 0.62,0.36 1.24,0.69 1.86,0.91 0.93,0.31 1.89,0.36 2.92,-0.19 2.09,-1.15 2.87,-3.96 1.66,-6.01z"/>
   <path class="fil8" d="M294.09 103.64c-0.72,0.12 -1.46,0.28 -2.19,0.49l0 0 -0.16 0.05 2.91 12.18c0.25,0.5 0.74,0.86 1.3,0.95l0 0c0.57,0.09 1.12,-0.1 1.53,-0.51l0 0c1.15,-1.17 2.44,-1.8 3.63,-1.8l0 0 0.02 0c0.92,0 1.76,0.39 2.49,1.15l0 0c0.76,0.78 1.17,1.89 1.12,3.03l0 0c-0.04,1.14 -0.52,2.21 -1.32,2.94l0 0c-0.74,0.66 -1.58,0.92 -2.66,0.82l0 0c-0.63,-0.06 -1.29,-0.23 -1.99,-0.43l0 0c-0.24,-0.06 -0.48,-0.09 -0.72,-0.07l0 0c-0.88,0.12 -1.53,0.87 -1.53,1.79l0 0 1.28 5.35 0 0 0.97 4.08 0.09 0.17 9.65 -2.3c0.39,0.05 0.75,0.27 0.98,0.61l0 0c0.23,0.35 0.29,0.76 0.17,1.16l0 0c-0.54,1.85 -0.88,3.5 0.46,4.99l0 0c0.79,0.88 1.95,1.41 3.19,1.46l0 0c0.05,0 0.11,0 0.17,0l0 0c1.18,0 2.31,-0.45 3.12,-1.23l0 0c0.84,-0.8 1.27,-1.73 1.27,-2.75l0 0c0.02,-1.29 -0.67,-2.69 -1.91,-3.92l0 0c-0.31,-0.3 -0.46,-0.7 -0.41,-1.13l0 0c0.05,-0.42 0.27,-0.79 0.61,-1.02l0 0 5.89 -1.41 0.02 -0.12c0.31,-2.15 0.29,-4.26 -0.06,-6.29l0 0c-1.03,-5.2 -3.04,-9.13 -6.15,-11.98l0 0c-4.84,-4.42 -10.53,-6.65 -16.97,-6.65l0 0c-1.55,0 -3.16,0.13 -4.8,0.39zm1.92 13.31c-0.45,-0.07 -0.84,-0.35 -1.02,-0.72l0 0 -2.82 -11.8c0.66,-0.18 1.32,-0.32 1.98,-0.43l0 0c8.32,-1.32 15.54,0.76 21.46,6.18l0 0c3.05,2.79 5.03,6.64 6.04,11.77l0 0c0.34,1.94 0.37,3.98 0.08,6.05l0 0 -5.69 1.35 -0.06 0.03c-0.45,0.28 -0.74,0.76 -0.79,1.3l0 0c-0.06,0.53 0.13,1.05 0.51,1.43l0 0c1.18,1.16 1.82,2.46 1.81,3.66l0 0c-0.01,0.92 -0.4,1.76 -1.16,2.49l0 0c-0.78,0.75 -1.9,1.17 -3.03,1.12l0 0c-1.14,-0.04 -2.21,-0.53 -2.93,-1.33l0 0c-1.22,-1.35 -0.91,-2.84 -0.38,-4.64l0 0c0.15,-0.51 0.07,-1.03 -0.22,-1.47l0 0c-0.3,-0.44 -0.75,-0.72 -1.27,-0.78l0 0 -0.04 0 -9.39 2.24 -0.86 -3.59 0 0 -1.35 -5.63c0,-0.69 0.52,-1.29 1.21,-1.38l0 0c0.18,-0.01 0.38,0.01 0.59,0.07l0 0c0.71,0.19 1.39,0.37 2.05,0.43l0 0c1.18,0.1 2.11,-0.18 2.93,-0.92l0 0c0.88,-0.78 1.41,-1.95 1.45,-3.18l0 0c0.04,-1.25 -0.4,-2.45 -1.22,-3.3l0 0c-0.81,-0.84 -1.73,-1.27 -2.76,-1.27l0 0 -0.02 0c-1.29,0 -2.67,0.68 -3.89,1.92l0 0c-0.27,0.27 -0.62,0.42 -0.99,0.42l0 0c-0.07,0 -0.15,-0.01 -0.22,-0.02l0 0z"/>
   <path class="fil9" d="M286.59 108.55c-3.05,0.14 -6.26,1.03 -9.55,2.64l0 0c-0.72,0.36 -1.5,0.77 -2.44,1.3l0 0c-5.92,3.36 -8.8,8.51 -8.54,15.34l0 0c0.13,3.5 -1.21,6.44 -4.21,9.23l0 0c-0.47,0.44 -0.96,0.89 -1.36,1.44l0 0c-0.05,0.07 -0.11,0.15 -0.16,0.22l0 0 -0.09 0.13c-0.77,1.27 -0.58,2.27 0.56,3.06l0 0c0.17,0.12 0.34,0.23 0.51,0.34l0 0c0.54,0.35 1.05,0.68 1.49,1.14l0 0c0.88,0.89 0.92,1.35 0.26,2.45l0 0c-0.85,1.39 -0.81,1.56 0.48,2.54l0 0 0.08 0.06c0.13,0.11 0.27,0.22 0.28,0.3l0 0c0.01,0.07 -0.06,0.17 -0.17,0.29l0 0c-0.32,0.33 -0.48,0.68 -0.46,1.04l0 0c0.02,0.39 0.23,0.77 0.62,1.11l0 0c0.68,0.59 0.9,1.36 0.73,2.49l0 0c-0.09,0.6 -0.21,1.2 -0.33,1.79l0 0c-0.06,0.29 -0.12,0.58 -0.17,0.87l0 0c-0.47,2.48 0.22,3.7 2.47,4.35l0 0c1.79,0.52 3.59,0.29 5.33,0.06l0 0c0.5,-0.07 1,-0.14 1.5,-0.18l0 0c0.45,-0.05 0.91,-0.12 1.35,-0.2l0 0c1.07,-0.18 2.09,-0.36 3.14,-0.1l0 0c0.95,0.24 1.43,0.8 1.54,1.83l0 0c0.12,0.98 0.34,1.94 0.55,2.87l0 0c0.15,0.65 0.3,1.3 0.41,1.96l0 0c0.24,1.37 0.85,1.88 2.17,1.83l0 0c0.93,-0.05 2.25,-0.07 4.06,-0.07l0 0 0.05 0c2.98,-0.02 6.71,0.02 10,0.05l0 0c2.34,0.03 4.48,0.05 5.98,0.05l0 0c0.88,0 1.54,-0.01 1.89,-0.03l0 0c0.49,-0.02 0.78,-0.15 0.92,-0.39l0 0c0.22,-0.38 -0.04,-0.91 -0.42,-1.65l0 0c-0.09,-0.17 -0.18,-0.35 -0.27,-0.55l0 0c-5.57,-11.71 1.94,-21.05 2.02,-21.15l0 0c1.52,-1.85 2.72,-3.89 3.58,-6.07l0 0 0.11 -0.25 -6.25 0 -0.05 0.01c-0.51,0.18 -0.9,0.57 -1.08,1.08l0 0c-0.18,0.51 -0.12,1.06 0.16,1.51l0 0c0.88,1.41 1.2,2.82 0.92,3.98l0 0c-0.23,0.89 -0.8,1.62 -1.71,2.16l0 0c-0.94,0.55 -2.11,0.69 -3.21,0.38l0 0c-1.1,-0.3 -2.03,-1.02 -2.54,-1.98l0 0c-0.87,-1.59 -0.22,-2.97 0.71,-4.6l0 0c0.26,-0.46 0.3,-0.98 0.12,-1.48l0 0c-0.18,-0.49 -0.57,-0.87 -1.05,-1.05l0 0 -9.7 -0.01 0 -3.67 0 0 0 -5.82c0.17,-0.67 0.82,-1.12 1.49,-1.05l0 0c0.18,0.03 0.37,0.1 0.56,0.2l0 0c0.65,0.35 1.26,0.68 1.9,0.9l0 0c1.12,0.38 2.09,0.31 3.05,-0.21l0 0c1.05,-0.56 1.83,-1.57 2.16,-2.76l0 0c0.33,-1.2 0.18,-2.48 -0.42,-3.5l0 0c-0.59,-1 -1.39,-1.63 -2.39,-1.87l0 0c-1.25,-0.31 -2.77,0.03 -4.25,0.95l0 0c-0.39,0.25 -0.85,0.29 -1.27,0.11l0 0c-0.42,-0.17 -0.73,-0.53 -0.83,-0.93l0 0 0 -12.31 -0.04 -0.18 -0.19 0zm-19.9 51.78c-2.07,-0.6 -2.65,-1.63 -2.21,-3.93l0 0c0.05,-0.29 0.11,-0.58 0.17,-0.87l0 0c0.12,-0.59 0.24,-1.2 0.33,-1.8l0 0c0.11,-0.79 0.16,-1.95 -0.85,-2.82l0 0c-0.22,-0.19 -0.48,-0.49 -0.5,-0.85l0 0c-0.01,-0.26 0.11,-0.52 0.36,-0.78l0 0c0.2,-0.2 0.29,-0.39 0.28,-0.57l0 0c-0.03,-0.25 -0.23,-0.41 -0.44,-0.56l0 0 -0.07 -0.05c-1.12,-0.86 -1.12,-0.86 -0.39,-2.07l0 0c0.75,-1.24 0.68,-1.89 -0.3,-2.89l0 0c-0.48,-0.48 -1.03,-0.84 -1.56,-1.19l0 0c-0.17,-0.12 -0.33,-0.22 -0.5,-0.34l0 0c-1,-0.69 -1.13,-1.46 -0.46,-2.57l0 0 0.09 -0.12c0.04,-0.07 0.09,-0.14 0.14,-0.21l0 0c0.38,-0.51 0.86,-0.96 1.31,-1.38l0 0c3.09,-2.88 4.46,-5.9 4.33,-9.51l0 0c-0.25,-6.78 2.49,-11.69 8.36,-15.01l0 0c0.94,-0.53 1.7,-0.94 2.41,-1.29l0 0c3.19,-1.56 6.29,-2.43 9.27,-2.6l0 0 0.01 12.16c0.12,0.55 0.51,1.01 1.04,1.23l0 0c0.53,0.22 1.11,0.17 1.6,-0.13l0 0c1.4,-0.88 2.81,-1.2 3.98,-0.92l0 0c0.89,0.22 1.62,0.79 2.15,1.71l0 0c0.56,0.94 0.7,2.11 0.39,3.21l0 0c-0.31,1.1 -1.03,2.02 -1.98,2.54l0 0c-0.87,0.47 -1.75,0.53 -2.77,0.18l0 0c-0.6,-0.2 -1.2,-0.52 -1.84,-0.87l0 0c-0.22,-0.12 -0.44,-0.2 -0.68,-0.24l0 0c-0.6,-0.06 -1.17,0.19 -1.54,0.63l0 0 0 -0.81 -0.35 1.52c-0.04,0.15 -0.05,0.28 -0.05,0.42l0 0 0.04 0 0 9.51 9.96 0c0.37,0.14 0.67,0.44 0.81,0.82l0 0c0.14,0.39 0.11,0.8 -0.1,1.17l0 0c-0.96,1.67 -1.67,3.2 -0.72,4.96l0 0c0.57,1.04 1.58,1.82 2.77,2.15l0 0c1.2,0.34 2.47,0.18 3.49,-0.42l0 0c1,-0.59 1.63,-1.39 1.87,-2.38l0 0c0.32,-1.26 -0.02,-2.77 -0.95,-4.26l0 0c-0.23,-0.37 -0.27,-0.79 -0.13,-1.2l0 0c0.14,-0.39 0.45,-0.7 0.82,-0.84l0 0 5.68 0c-0.84,2.05 -1.99,3.97 -3.43,5.72l0 0c-0.32,0.39 -7.73,9.62 -2.07,21.54l0 0c0.09,0.19 0.19,0.38 0.27,0.55l0 0c0.29,0.57 0.56,1.1 0.44,1.31l0 0c-0.07,0.12 -0.29,0.19 -0.63,0.21l0 0c-0.92,0.04 -4.13,0.01 -7.85,-0.02l0 0c-2.88,-0.03 -6.11,-0.06 -8.87,-0.06l0 0c-0.39,0 -0.77,0 -1.14,0l0 0 -0.04 0c-1.82,0.01 -3.15,0.03 -4.07,0.07l0 0c-1.15,0.05 -1.59,-0.33 -1.8,-1.52l0 0c-0.12,-0.67 -0.26,-1.33 -0.42,-1.98l0 0c-0.21,-0.92 -0.42,-1.87 -0.53,-2.83l0 0c-0.14,-1.17 -0.73,-1.87 -1.83,-2.14l0 0c-1.12,-0.28 -2.22,-0.09 -3.28,0.09l0 0c-0.43,0.08 -0.88,0.15 -1.32,0.19l0 0c-0.5,0.05 -1.01,0.12 -1.51,0.19l0 0c-0.96,0.12 -1.94,0.25 -2.91,0.25l0 0c-0.76,0 -1.53,-0.08 -2.28,-0.3l0 0z"/>
   <path class="fil0" d="M178.35 333.81c0.4,-0.73 0.95,-1.3 1.65,-1.7 0.7,-0.41 1.47,-0.61 2.33,-0.61 1.04,0 1.94,0.24 2.68,0.74 0.75,0.5 1.29,1.2 1.63,2.1l-1.1 0c-0.27,-0.64 -0.68,-1.13 -1.22,-1.49 -0.55,-0.36 -1.22,-0.54 -1.99,-0.54 -0.69,0 -1.31,0.16 -1.86,0.49 -0.55,0.32 -0.97,0.78 -1.29,1.38 -0.31,0.6 -0.46,1.3 -0.46,2.1 0,0.79 0.15,1.48 0.46,2.08 0.32,0.6 0.74,1.06 1.29,1.38 0.55,0.33 1.17,0.48 1.86,0.48 0.77,0 1.44,-0.17 1.99,-0.53 0.54,-0.35 0.95,-0.84 1.22,-1.46l1.1 0c-0.34,0.89 -0.89,1.58 -1.64,2.07 -0.75,0.49 -1.64,0.74 -2.67,0.74 -0.86,0 -1.63,-0.2 -2.33,-0.61 -0.7,-0.4 -1.25,-0.97 -1.65,-1.69 -0.4,-0.73 -0.6,-1.55 -0.6,-2.46 0,-0.92 0.2,-1.74 0.6,-2.47z"/>
   <path class="fil0" d="M190.44 336.29l1.89 0c0.72,0 1.28,-0.18 1.65,-0.53 0.37,-0.36 0.55,-0.84 0.55,-1.44 0,-0.62 -0.18,-1.09 -0.53,-1.42 -0.36,-0.34 -0.92,-0.51 -1.69,-0.51l-1.87 0 0 3.9zm4.04 4.67l-2.32 -3.91 -1.72 0 0 3.91 -0.94 0 0 -9.36 2.81 0c1.04,0 1.84,0.26 2.38,0.75 0.54,0.51 0.81,1.16 0.81,1.97 0,0.68 -0.2,1.26 -0.59,1.74 -0.38,0.47 -0.96,0.78 -1.71,0.92l2.4 3.98 -1.12 0z"/>
   <polygon class="fil0" points="207.5,331.73 207.5,340.96 206.56,340.96 206.56,333.58 203.27,340.96 202.59,340.96 199.3,333.61 199.3,340.96 198.36,340.96 198.36,331.73 199.35,331.73 202.92,339.73 206.5,331.73 "/>
   <polygon class="fil0" points="220.85,332.1 217.11,340.96 216.16,340.96 219.94,332.18 214.58,332.18 214.58,331.38 220.85,331.38 "/>
   <path class="fil0" d="M228.65 333.97c-0.12,-0.57 -0.35,-1.03 -0.69,-1.38 -0.33,-0.34 -0.83,-0.52 -1.47,-0.52 -0.64,0 -1.13,0.18 -1.47,0.52 -0.34,0.35 -0.56,0.81 -0.68,1.38 -0.12,0.57 -0.18,1.27 -0.18,2.1 0,0.86 0.06,1.58 0.18,2.15 0.12,0.58 0.34,1.04 0.68,1.39 0.34,0.35 0.83,0.52 1.47,0.52 0.64,0 1.14,-0.17 1.47,-0.52 0.34,-0.35 0.57,-0.81 0.69,-1.39 0.11,-0.57 0.17,-1.29 0.17,-2.15 0,-0.83 -0.06,-1.53 -0.17,-2.1zm-4.7 -1.47c0.47,-0.85 1.32,-1.27 2.54,-1.27 1.22,0 2.07,0.42 2.55,1.27 0.47,0.85 0.7,2.04 0.7,3.57 0,1.57 -0.23,2.77 -0.7,3.63 -0.48,0.86 -1.33,1.29 -2.55,1.29 -1.23,0 -2.08,-0.43 -2.55,-1.29 -0.47,-0.86 -0.7,-2.06 -0.7,-3.63 0,-1.53 0.24,-2.72 0.71,-3.57z"/>
   <path class="fil0" d="M234.81 335.65c-0.38,0.17 -0.68,0.42 -0.92,0.77 -0.24,0.34 -0.36,0.76 -0.36,1.26 0,0.72 0.22,1.32 0.65,1.81 0.42,0.48 1.05,0.72 1.87,0.72 0.68,0 1.23,-0.21 1.65,-0.63 0.41,-0.42 0.61,-0.99 0.61,-1.71 0,-0.78 -0.2,-1.39 -0.6,-1.82 -0.4,-0.44 -0.98,-0.66 -1.71,-0.66 -0.42,0 -0.82,0.09 -1.19,0.26zm1.17 -3.68c-0.87,0 -1.53,0.33 -1.97,1.01 -0.43,0.68 -0.63,1.79 -0.6,3.34 0.18,-0.54 0.52,-0.96 1.02,-1.27 0.51,-0.31 1.09,-0.46 1.74,-0.46 0.93,0 1.68,0.29 2.23,0.86 0.55,0.58 0.82,1.37 0.82,2.38 0,0.59 -0.11,1.12 -0.34,1.6 -0.23,0.47 -0.58,0.86 -1.05,1.14 -0.46,0.29 -1.05,0.43 -1.74,0.43 -1.33,0 -2.25,-0.42 -2.75,-1.27 -0.51,-0.85 -0.76,-2.05 -0.76,-3.6 0,-3.3 1.14,-4.95 3.4,-4.95 0.86,0 1.53,0.23 2.02,0.7 0.49,0.47 0.78,1.07 0.87,1.82l-0.87 0c-0.19,-1.15 -0.87,-1.73 -2.02,-1.73z"/>
   <path class="fil0" d="M246.85 332.49c-0.4,-0.32 -0.95,-0.49 -1.63,-0.49 -0.69,0 -1.23,0.16 -1.64,0.48 -0.4,0.32 -0.6,0.77 -0.6,1.37 0,0.55 0.21,1 0.61,1.33 0.42,0.33 0.96,0.49 1.63,0.49 0.67,0 1.2,-0.16 1.62,-0.49 0.4,-0.33 0.61,-0.78 0.61,-1.33 0,-0.59 -0.2,-1.04 -0.6,-1.36zm-3.43 4.4c-0.46,0.33 -0.69,0.83 -0.69,1.5 0,0.64 0.22,1.15 0.67,1.51 0.44,0.37 1.05,0.55 1.82,0.55 0.75,0 1.36,-0.18 1.8,-0.55 0.45,-0.37 0.67,-0.87 0.67,-1.51 0,-0.66 -0.23,-1.16 -0.69,-1.49 -0.45,-0.34 -1.05,-0.5 -1.78,-0.5 -0.74,0 -1.33,0.16 -1.8,0.49zm-0.91 -1.75c-0.29,-0.39 -0.44,-0.85 -0.44,-1.39 0,-0.49 0.13,-0.92 0.37,-1.3 0.24,-0.37 0.6,-0.67 1.08,-0.89 0.47,-0.22 1.04,-0.33 1.7,-0.33 0.66,0 1.22,0.11 1.7,0.33 0.47,0.22 0.83,0.52 1.07,0.89 0.25,0.38 0.37,0.81 0.37,1.3 0,0.53 -0.14,1 -0.44,1.39 -0.28,0.39 -0.7,0.67 -1.26,0.84 0.61,0.15 1.09,0.44 1.43,0.87 0.35,0.43 0.53,0.95 0.53,1.57 0,0.57 -0.15,1.06 -0.42,1.49 -0.29,0.42 -0.68,0.75 -1.2,0.98 -0.51,0.24 -1.11,0.35 -1.78,0.35 -0.68,0 -1.28,-0.11 -1.79,-0.35 -0.51,-0.23 -0.91,-0.56 -1.19,-0.98 -0.28,-0.43 -0.42,-0.92 -0.42,-1.49 0,-0.62 0.17,-1.14 0.52,-1.57 0.35,-0.43 0.82,-0.72 1.43,-0.87 -0.55,-0.18 -0.97,-0.46 -1.26,-0.84z"/>
   <polygon class="fil0" points="257.29,342.3 256.35,342.3 256.35,330.38 257.29,330.38 "/>
   <path class="fil0" d="M266.24 336.29l1.89 0c0.73,0 1.28,-0.18 1.65,-0.53 0.37,-0.36 0.56,-0.84 0.56,-1.44 0,-0.62 -0.18,-1.09 -0.54,-1.42 -0.36,-0.34 -0.92,-0.51 -1.68,-0.51l-1.88 0 0 3.9zm4.04 4.67l-2.31 -3.91 -1.73 0 0 3.91 -0.94 0 0 -9.36 2.82 0c1.04,0 1.83,0.26 2.37,0.75 0.54,0.51 0.81,1.16 0.81,1.97 0,0.68 -0.19,1.26 -0.58,1.74 -0.39,0.47 -0.96,0.78 -1.72,0.92l2.41 3.98 -1.13 0z"/>
   <path class="fil0" d="M275.18 338.37c0.32,0.6 0.76,1.06 1.31,1.38 0.56,0.33 1.18,0.49 1.88,0.49 0.69,0 1.31,-0.16 1.87,-0.49 0.55,-0.32 0.99,-0.78 1.31,-1.38 0.32,-0.6 0.49,-1.3 0.49,-2.1 0,-0.79 -0.17,-1.48 -0.49,-2.08 -0.32,-0.6 -0.76,-1.06 -1.31,-1.38 -0.56,-0.32 -1.18,-0.48 -1.87,-0.48 -0.7,0 -1.32,0.16 -1.88,0.48 -0.55,0.32 -0.99,0.78 -1.31,1.38 -0.32,0.6 -0.48,1.29 -0.48,2.08 0,0.8 0.16,1.5 0.48,2.1zm6.71 4.42l-2.09 -1.94c-0.46,0.14 -0.94,0.2 -1.43,0.2 -0.87,0 -1.66,-0.2 -2.36,-0.6 -0.7,-0.41 -1.26,-0.98 -1.67,-1.71 -0.4,-0.72 -0.61,-1.54 -0.61,-2.47 0,-0.91 0.21,-1.74 0.61,-2.46 0.41,-0.73 0.97,-1.3 1.67,-1.7 0.7,-0.41 1.49,-0.61 2.36,-0.61 0.87,0 1.66,0.2 2.36,0.61 0.71,0.4 1.26,0.97 1.66,1.7 0.41,0.72 0.61,1.55 0.61,2.46 0,0.95 -0.21,1.79 -0.63,2.53 -0.42,0.73 -1,1.3 -1.73,1.69l2.5 2.3 -1.25 0z"/>
   <polygon class="fil0" points="286.66,332.37 286.66,335.86 290.21,335.86 290.21,336.64 286.66,336.64 286.66,340.18 290.61,340.18 290.61,340.96 285.73,340.96 285.73,331.59 290.61,331.59 290.61,332.37 "/>
   <path class="fil0" d="M300.25 335.65c-0.38,0.17 -0.68,0.42 -0.92,0.77 -0.24,0.34 -0.35,0.76 -0.35,1.26 0,0.72 0.21,1.32 0.64,1.81 0.43,0.48 1.05,0.72 1.87,0.72 0.69,0 1.24,-0.21 1.65,-0.63 0.41,-0.42 0.62,-0.99 0.62,-1.71 0,-0.78 -0.21,-1.39 -0.61,-1.82 -0.4,-0.44 -0.97,-0.66 -1.71,-0.66 -0.42,0 -0.82,0.09 -1.19,0.26zm1.18 -3.68c-0.88,0 -1.54,0.33 -1.97,1.01 -0.44,0.68 -0.64,1.79 -0.6,3.34 0.17,-0.54 0.52,-0.96 1.02,-1.27 0.5,-0.31 1.08,-0.46 1.73,-0.46 0.94,0 1.68,0.29 2.23,0.86 0.55,0.58 0.82,1.37 0.82,2.38 0,0.59 -0.11,1.12 -0.34,1.6 -0.23,0.47 -0.57,0.86 -1.04,1.14 -0.47,0.29 -1.05,0.43 -1.75,0.43 -1.33,0 -2.24,-0.42 -2.75,-1.27 -0.5,-0.85 -0.75,-2.05 -0.75,-3.6 0,-3.3 1.13,-4.95 3.4,-4.95 0.85,0 1.53,0.23 2.02,0.7 0.49,0.47 0.78,1.07 0.87,1.82l-0.87 0c-0.2,-1.15 -0.87,-1.73 -2.02,-1.73z"/>
   <path class="fil0" d="M312.04 332.45l-4.02 5.42 4.02 0 0 -5.42zm-5.1 6.24l0 -0.71 4.87 -6.56 1.11 0 0 6.45 1.43 0 0 0.82 -1.43 0 0 2.27 -0.92 0 0 -2.27 -5.06 0z"/>
   <polygon class="fil0" points="322.3,332.1 318.57,340.96 317.62,340.96 321.39,332.18 316.04,332.18 316.04,331.38 322.3,331.38 "/>
   <path class="fil0" d="M330.75 332.17l-4.9 0 0 3.42c0.22,-0.31 0.55,-0.56 0.98,-0.77 0.43,-0.2 0.89,-0.3 1.39,-0.3 0.73,0 1.33,0.15 1.79,0.45 0.47,0.3 0.8,0.69 1,1.16 0.21,0.48 0.31,0.99 0.31,1.54 0,0.62 -0.11,1.18 -0.35,1.69 -0.24,0.5 -0.6,0.9 -1.08,1.2 -0.49,0.29 -1.1,0.44 -1.82,0.44 -0.92,0 -1.66,-0.24 -2.23,-0.72 -0.58,-0.47 -0.92,-1.12 -1.05,-1.93l0.92 0c0.12,0.59 0.39,1.04 0.81,1.36 0.42,0.33 0.94,0.49 1.55,0.49 0.78,0 1.37,-0.23 1.76,-0.69 0.4,-0.46 0.6,-1.07 0.6,-1.83 0,-0.74 -0.2,-1.32 -0.61,-1.73 -0.4,-0.42 -0.97,-0.62 -1.72,-0.62 -0.52,0 -0.97,0.12 -1.37,0.36 -0.39,0.24 -0.68,0.56 -0.87,0.97l-0.88 0 0 -5.31 5.77 0 0 0.82z"/>
  </g>
 </g>
</svg>
